<?xml version="1.0" encoding="utf-8" ?>
<!DOCTYPE svg PUBLIC "-//W3C//DTD SVG 1.1//EN" "http://www.w3.org/Graphics/SVG/1.1/DTD/svg11.dtd">
<svg height="668" version="1.1" width="645" xmlns="http://www.w3.org/2000/svg">
<ellipse cx="158" cy="22" fill="#000000" rx="8.0" ry="8.0" stroke="#000000" stroke-width="1"/>
<rect fill="#00ff" height="54" rx="56" ry="56" stroke="#00ff" stroke-width="1" width="241" x="47" y="79"/>
<rect fill="#ffffff" height="56" rx="56" ry="56" stroke="#ffffff" stroke-width="1" width="243" x="46" y="78"/>
<rect fill="#ffffff" height="56" rx="56" ry="56" stroke="#000000" stroke-width="1" width="243" x="46" y="78"/>
<text font-family="Dialog" font-size="12" x="58" y="97">
Поискване на списък от клиенти</text>
<text font-family="Dialog" font-size="12" x="100" y="111">
 по даден критерии</text>
<polyline fill="none" points="157,29 157,79" stroke="#000000" stroke-width="1"/>
<line fill="#000000" stroke="#000000" stroke-width="1" x1="150" x2="157" y1="67" y2="79"/>
<line fill="#000000" stroke="#000000" stroke-width="1" x1="164" x2="157" y1="67" y2="79"/>
<polygon fill="#ffffff" points="158,174 174,190 158,206 142,190" stroke="#ffffff" stroke-width="1"/>
<polygon fill="none" points="158,174 174,190 158,206 142,190" stroke="#000000" stroke-width="1"/>
<polyline fill="none" points="158,133 158,174" stroke="#000000" stroke-width="1"/>
<line fill="#000000" stroke="#000000" stroke-width="1" x1="151" x2="158" y1="162" y2="174"/>
<line fill="#000000" stroke="#000000" stroke-width="1" x1="165" x2="158" y1="162" y2="174"/>
<text font-family="Dialog" font-size="12" x="107" y="218">
празен списък?</text>
<rect fill="#00ff" height="48" rx="50" ry="50" stroke="#00ff" stroke-width="1" width="107" x="279" y="167"/>
<rect fill="#ffffff" height="50" rx="50" ry="50" stroke="#ffffff" stroke-width="1" width="109" x="278" y="166"/>
<rect fill="#ffffff" height="50" rx="50" ry="50" stroke="#000000" stroke-width="1" width="109" x="278" y="166"/>
<text font-family="Dialog" font-size="12" x="291" y="185">
избиране на</text>
<text font-family="Dialog" font-size="12" x="290" y="199">
 потребител</text>
<polyline fill="none" points="174,190 279,190" stroke="#000000" stroke-width="1"/>
<line fill="#000000" stroke="#000000" stroke-width="1" x1="267" x2="279" y1="197" y2="190"/>
<line fill="#000000" stroke="#000000" stroke-width="1" x1="267" x2="279" y1="183" y2="190"/>
<text font-family="Dialog" font-size="12" x="218" y="185">
не</text>
<polyline fill="none" points="142,190 14,190 14,102 47,102" stroke="#000000" stroke-width="1"/>
<line fill="#000000" stroke="#000000" stroke-width="1" x1="35" x2="47" y1="109" y2="102"/>
<line fill="#000000" stroke="#000000" stroke-width="1" x1="35" x2="47" y1="95" y2="102"/>
<text font-family="Dialog" font-size="12" x="30" y="176">
да</text>
<rect fill="#00ff" height="48" rx="50" ry="50" stroke="#00ff" stroke-width="1" width="144" x="263" y="239"/>
<rect fill="#ffffff" height="50" rx="50" ry="50" stroke="#ffffff" stroke-width="1" width="146" x="262" y="238"/>
<rect fill="#ffffff" height="50" rx="50" ry="50" stroke="#000000" stroke-width="1" width="146" x="262" y="238"/>
<text font-family="Dialog" font-size="12" x="274" y="257">
Промяна на данни</text>
<text font-family="Dialog" font-size="12" x="281" y="271">
на потребителя</text>
<polyline fill="none" points="333,215 333,239" stroke="#000000" stroke-width="1"/>
<line fill="#000000" stroke="#000000" stroke-width="1" x1="326" x2="333" y1="227" y2="239"/>
<line fill="#000000" stroke="#000000" stroke-width="1" x1="340" x2="333" y1="227" y2="239"/>
<polygon fill="#ffffff" points="334,334 350,350 334,366 318,350" stroke="#ffffff" stroke-width="1"/>
<polygon fill="none" points="334,334 350,350 334,366 318,350" stroke="#000000" stroke-width="1"/>
<polyline fill="none" points="334,287 334,334" stroke="#000000" stroke-width="1"/>
<line fill="#000000" stroke="#000000" stroke-width="1" x1="327" x2="334" y1="322" y2="334"/>
<line fill="#000000" stroke="#000000" stroke-width="1" x1="341" x2="334" y1="322" y2="334"/>
<text font-family="Dialog" font-size="12" x="218" y="356">
потвърждение</text>
<rect fill="#000000" height="7" stroke="#000000" stroke-width="1" width="80" x="294" y="406"/>
<polyline fill="none" points="334,366 334,406" stroke="#000000" stroke-width="1"/>
<line fill="#000000" stroke="#000000" stroke-width="1" x1="327" x2="334" y1="394" y2="406"/>
<line fill="#000000" stroke="#000000" stroke-width="1" x1="341" x2="334" y1="394" y2="406"/>
<text font-family="Dialog" font-size="12" x="343" y="391">
да</text>
<rect fill="#00ff" height="63" rx="65" ry="65" stroke="#00ff" stroke-width="1" width="118" x="271" y="439"/>
<rect fill="#ffffff" height="65" rx="65" ry="65" stroke="#ffffff" stroke-width="1" width="120" x="270" y="438"/>
<rect fill="#ffffff" height="65" rx="65" ry="65" stroke="#000000" stroke-width="1" width="120" x="270" y="438"/>
<text font-family="Dialog" font-size="12" x="282" y="457">
Изпращане на</text>
<text font-family="Dialog" font-size="12" x="299" y="471">
e-mail до </text>
<text font-family="Dialog" font-size="12" x="286" y="485">
потребителя</text>
<polyline fill="none" points="334,413 334,439" stroke="#000000" stroke-width="1"/>
<line fill="#000000" stroke="#000000" stroke-width="1" x1="327" x2="334" y1="427" y2="439"/>
<line fill="#000000" stroke="#000000" stroke-width="1" x1="341" x2="334" y1="427" y2="439"/>
<rect fill="#00ff" height="63" rx="65" ry="65" stroke="#00ff" stroke-width="1" width="231" x="399" y="447"/>
<rect fill="#ffffff" height="65" rx="65" ry="65" stroke="#ffffff" stroke-width="1" width="233" x="398" y="446"/>
<rect fill="#ffffff" height="65" rx="65" ry="65" stroke="#000000" stroke-width="1" width="233" x="398" y="446"/>
<text font-family="Dialog" font-size="12" x="437" y="465">
Промяна на статуса на</text>
<text font-family="Dialog" font-size="12" x="410" y="479">
всички тикети на потребителя</text>
<text font-family="Dialog" font-size="12" x="467" y="493">
на "Свободен"</text>
<polyline fill="none" points="374,413 399,447" stroke="#000000" stroke-width="1"/>
<line fill="#000000" stroke="#000000" stroke-width="1" x1="386" x2="399" y1="441" y2="447"/>
<line fill="#000000" stroke="#000000" stroke-width="1" x1="397" x2="399" y1="433" y2="447"/>
<rect fill="#00ff" height="48" rx="50" ry="50" stroke="#00ff" stroke-width="1" width="112" x="143" y="447"/>
<rect fill="#ffffff" height="50" rx="50" ry="50" stroke="#ffffff" stroke-width="1" width="114" x="142" y="446"/>
<rect fill="#ffffff" height="50" rx="50" ry="50" stroke="#000000" stroke-width="1" width="114" x="142" y="446"/>
<text font-family="Dialog" font-size="12" x="154" y="465">
Записване на</text>
<text font-family="Dialog" font-size="12" x="162" y="479">
промените</text>
<rect fill="#000000" height="7" stroke="#000000" stroke-width="1" width="80" x="286" y="574"/>
<polyline fill="none" points="326,502 326,574" stroke="#000000" stroke-width="1"/>
<line fill="#000000" stroke="#000000" stroke-width="1" x1="319" x2="326" y1="562" y2="574"/>
<line fill="#000000" stroke="#000000" stroke-width="1" x1="333" x2="326" y1="562" y2="574"/>
<polyline fill="none" points="399,510 366,574" stroke="#000000" stroke-width="1"/>
<line fill="#000000" stroke="#000000" stroke-width="1" x1="365" x2="366" y1="560" y2="574"/>
<line fill="#000000" stroke="#000000" stroke-width="1" x1="377" x2="366" y1="566" y2="574"/>
<ellipse cx="330" cy="642" fill="#000000" rx="12.0" ry="12.0" stroke="#000000" stroke-width="1"/>
<ellipse cx="330" cy="642" fill="#ffffff" rx="11.0" ry="11.0" stroke="#ffffff" stroke-width="1"/>
<ellipse cx="329" cy="641" fill="#000000" rx="7.5" ry="7.5" stroke="#000000" stroke-width="1"/>
<polyline fill="none" points="255,495 286,574" stroke="#000000" stroke-width="1"/>
<line fill="#000000" stroke="#000000" stroke-width="1" x1="275" x2="286" y1="565" y2="574"/>
<line fill="#000000" stroke="#000000" stroke-width="1" x1="288" x2="286" y1="560" y2="574"/>
<polyline fill="none" points="350,350 486,350 486,262 407,262" stroke="#000000" stroke-width="1"/>
<line fill="#000000" stroke="#000000" stroke-width="1" x1="419" x2="407" y1="255" y2="262"/>
<line fill="#000000" stroke="#000000" stroke-width="1" x1="419" x2="407" y1="269" y2="262"/>
<text font-family="Dialog" font-size="12" x="461" y="338">
не</text>
<polyline fill="none" points="294,413 255,447" stroke="#000000" stroke-width="1"/>
<line fill="#000000" stroke="#000000" stroke-width="1" x1="259" x2="255" y1="433" y2="447"/>
<line fill="#000000" stroke="#000000" stroke-width="1" x1="268" x2="255" y1="444" y2="447"/>
<polyline fill="none" points="329,581 329,630" stroke="#000000" stroke-width="1"/>
<line fill="#000000" stroke="#000000" stroke-width="1" x1="322" x2="329" y1="618" y2="630"/>
<line fill="#000000" stroke="#000000" stroke-width="1" x1="336" x2="329" y1="618" y2="630"/>
</svg>
