<?xml version="1.0" encoding="utf-8" ?>
<!DOCTYPE svg PUBLIC "-//W3C//DTD SVG 1.1//EN" "http://www.w3.org/Graphics/SVG/1.1/DTD/svg11.dtd">
<svg height="425" version="1.1" width="931" xmlns="http://www.w3.org/2000/svg">
<line fill="#000000" stroke="#000000" stroke-width="1" x1="90" x2="90" y1="63" y2="68"/>
<line fill="#000000" stroke="#000000" stroke-width="1" x1="90" x2="90" y1="73" y2="78"/>
<line fill="#000000" stroke="#000000" stroke-width="1" x1="90" x2="90" y1="83" y2="88"/>
<line fill="#000000" stroke="#000000" stroke-width="1" x1="90" x2="90" y1="93" y2="98"/>
<line fill="#000000" stroke="#000000" stroke-width="1" x1="90" x2="90" y1="103" y2="108"/>
<line fill="#000000" stroke="#000000" stroke-width="1" x1="90" x2="90" y1="113" y2="118"/>
<line fill="#000000" stroke="#000000" stroke-width="1" x1="90" x2="90" y1="123" y2="128"/>
<line fill="#000000" stroke="#000000" stroke-width="1" x1="90" x2="90" y1="133" y2="138"/>
<line fill="#000000" stroke="#000000" stroke-width="1" x1="90" x2="90" y1="143" y2="148"/>
<line fill="#000000" stroke="#000000" stroke-width="1" x1="90" x2="90" y1="153" y2="158"/>
<line fill="#000000" stroke="#000000" stroke-width="1" x1="90" x2="90" y1="163" y2="168"/>
<line fill="#000000" stroke="#000000" stroke-width="1" x1="90" x2="90" y1="173" y2="178"/>
<line fill="#000000" stroke="#000000" stroke-width="1" x1="90" x2="90" y1="183" y2="188"/>
<line fill="#000000" stroke="#000000" stroke-width="1" x1="90" x2="90" y1="193" y2="198"/>
<line fill="#000000" stroke="#000000" stroke-width="1" x1="90" x2="90" y1="203" y2="208"/>
<line fill="#000000" stroke="#000000" stroke-width="1" x1="90" x2="90" y1="213" y2="218"/>
<line fill="#000000" stroke="#000000" stroke-width="1" x1="90" x2="90" y1="223" y2="228"/>
<line fill="#000000" stroke="#000000" stroke-width="1" x1="90" x2="90" y1="233" y2="238"/>
<line fill="#000000" stroke="#000000" stroke-width="1" x1="90" x2="90" y1="243" y2="248"/>
<line fill="#000000" stroke="#000000" stroke-width="1" x1="90" x2="90" y1="253" y2="258"/>
<line fill="#000000" stroke="#000000" stroke-width="1" x1="90" x2="90" y1="263" y2="268"/>
<line fill="#000000" stroke="#000000" stroke-width="1" x1="90" x2="90" y1="273" y2="278"/>
<line fill="#000000" stroke="#000000" stroke-width="1" x1="90" x2="90" y1="283" y2="288"/>
<line fill="#000000" stroke="#000000" stroke-width="1" x1="90" x2="90" y1="293" y2="298"/>
<line fill="#000000" stroke="#000000" stroke-width="1" x1="90" x2="90" y1="303" y2="308"/>
<line fill="#000000" stroke="#000000" stroke-width="1" x1="90" x2="90" y1="313" y2="318"/>
<line fill="#000000" stroke="#000000" stroke-width="1" x1="90" x2="90" y1="323" y2="328"/>
<line fill="#000000" stroke="#000000" stroke-width="1" x1="90" x2="90" y1="333" y2="338"/>
<line fill="#000000" stroke="#000000" stroke-width="1" x1="90" x2="90" y1="343" y2="348"/>
<line fill="#000000" stroke="#000000" stroke-width="1" x1="90" x2="90" y1="353" y2="358"/>
<line fill="#000000" stroke="#000000" stroke-width="1" x1="90" x2="90" y1="363" y2="368"/>
<line fill="#000000" stroke="#000000" stroke-width="1" x1="90" x2="90" y1="373" y2="378"/>
<line fill="#000000" stroke="#000000" stroke-width="1" x1="90" x2="90" y1="383" y2="388"/>
<line fill="#000000" stroke="#000000" stroke-width="1" x1="90" x2="90" y1="393" y2="398"/>
<rect fill="#ffffff" height="338" stroke="#ffffff" stroke-width="1" width="20" x="80" y="63"/>
<rect fill="none" height="338" stroke="#000000" stroke-width="1" width="20" x="80" y="63"/>
<rect fill="#ffffff" height="50" stroke="#ffffff" stroke-width="1" width="152" x="14" y="14"/>
<rect fill="none" height="50" stroke="#000000" stroke-width="1" width="152" x="14" y="14"/>
<text font-family="Dialog" font-size="12" x="47" y="27">
/Потребител</text>
<line fill="#000000" stroke="#000000" stroke-width="1" x1="481" x2="481" y1="63" y2="68"/>
<line fill="#000000" stroke="#000000" stroke-width="1" x1="481" x2="481" y1="73" y2="78"/>
<line fill="#000000" stroke="#000000" stroke-width="1" x1="481" x2="481" y1="83" y2="88"/>
<line fill="#000000" stroke="#000000" stroke-width="1" x1="481" x2="481" y1="93" y2="98"/>
<line fill="#000000" stroke="#000000" stroke-width="1" x1="481" x2="481" y1="103" y2="108"/>
<line fill="#000000" stroke="#000000" stroke-width="1" x1="481" x2="481" y1="113" y2="118"/>
<line fill="#000000" stroke="#000000" stroke-width="1" x1="481" x2="481" y1="123" y2="128"/>
<line fill="#000000" stroke="#000000" stroke-width="1" x1="481" x2="481" y1="133" y2="138"/>
<line fill="#000000" stroke="#000000" stroke-width="1" x1="481" x2="481" y1="143" y2="148"/>
<line fill="#000000" stroke="#000000" stroke-width="1" x1="481" x2="481" y1="153" y2="158"/>
<line fill="#000000" stroke="#000000" stroke-width="1" x1="481" x2="481" y1="163" y2="168"/>
<line fill="#000000" stroke="#000000" stroke-width="1" x1="481" x2="481" y1="173" y2="178"/>
<line fill="#000000" stroke="#000000" stroke-width="1" x1="481" x2="481" y1="183" y2="188"/>
<line fill="#000000" stroke="#000000" stroke-width="1" x1="481" x2="481" y1="193" y2="198"/>
<line fill="#000000" stroke="#000000" stroke-width="1" x1="481" x2="481" y1="203" y2="208"/>
<line fill="#000000" stroke="#000000" stroke-width="1" x1="481" x2="481" y1="213" y2="218"/>
<line fill="#000000" stroke="#000000" stroke-width="1" x1="481" x2="481" y1="223" y2="228"/>
<line fill="#000000" stroke="#000000" stroke-width="1" x1="481" x2="481" y1="233" y2="238"/>
<line fill="#000000" stroke="#000000" stroke-width="1" x1="481" x2="481" y1="243" y2="248"/>
<line fill="#000000" stroke="#000000" stroke-width="1" x1="481" x2="481" y1="253" y2="258"/>
<line fill="#000000" stroke="#000000" stroke-width="1" x1="481" x2="481" y1="263" y2="268"/>
<line fill="#000000" stroke="#000000" stroke-width="1" x1="481" x2="481" y1="273" y2="278"/>
<line fill="#000000" stroke="#000000" stroke-width="1" x1="481" x2="481" y1="283" y2="288"/>
<line fill="#000000" stroke="#000000" stroke-width="1" x1="481" x2="481" y1="293" y2="298"/>
<line fill="#000000" stroke="#000000" stroke-width="1" x1="481" x2="481" y1="303" y2="308"/>
<line fill="#000000" stroke="#000000" stroke-width="1" x1="481" x2="481" y1="313" y2="318"/>
<line fill="#000000" stroke="#000000" stroke-width="1" x1="481" x2="481" y1="323" y2="328"/>
<line fill="#000000" stroke="#000000" stroke-width="1" x1="481" x2="481" y1="333" y2="338"/>
<line fill="#000000" stroke="#000000" stroke-width="1" x1="481" x2="481" y1="343" y2="348"/>
<line fill="#000000" stroke="#000000" stroke-width="1" x1="481" x2="481" y1="353" y2="358"/>
<line fill="#000000" stroke="#000000" stroke-width="1" x1="481" x2="481" y1="363" y2="368"/>
<line fill="#000000" stroke="#000000" stroke-width="1" x1="481" x2="481" y1="373" y2="378"/>
<line fill="#000000" stroke="#000000" stroke-width="1" x1="481" x2="481" y1="383" y2="388"/>
<line fill="#000000" stroke="#000000" stroke-width="1" x1="481" x2="481" y1="393" y2="398"/>
<rect fill="#ffffff" height="338" stroke="#ffffff" stroke-width="1" width="20" x="471" y="63"/>
<rect fill="none" height="338" stroke="#000000" stroke-width="1" width="20" x="471" y="63"/>
<rect fill="#ffffff" height="50" stroke="#ffffff" stroke-width="1" width="166" x="398" y="14"/>
<rect fill="none" height="50" stroke="#000000" stroke-width="1" width="166" x="398" y="14"/>
<text font-family="Dialog" font-size="12" x="402" y="27">
/Подсистема за тикети</text>
<polyline fill="none" points="100,214 471,214" stroke="#000000" stroke-width="1"/>
<line fill="#000000" stroke="#000000" stroke-width="1" x1="459" x2="471" y1="221" y2="214"/>
<line fill="#000000" stroke="#000000" stroke-width="1" x1="459" x2="471" y1="207" y2="214"/>
<text font-family="Dialog" font-size="12" x="212" y="210">
избор (тикет)</text>
<polyline fill="none" points="100,238 471,238" stroke="#000000" stroke-width="1"/>
<line fill="#000000" stroke="#000000" stroke-width="1" x1="459" x2="471" y1="245" y2="238"/>
<line fill="#000000" stroke="#000000" stroke-width="1" x1="459" x2="471" y1="231" y2="238"/>
<text font-family="Dialog" font-size="12" x="212" y="234">
промянаНаСтатус (тикет, статус)</text>
<polyline fill="none" points="100,366 471,366" stroke="#000000" stroke-width="1"/>
<line fill="#000000" stroke="#000000" stroke-width="1" x1="459" x2="471" y1="373" y2="366"/>
<line fill="#000000" stroke="#000000" stroke-width="1" x1="459" x2="471" y1="359" y2="366"/>
<text font-family="Dialog" font-size="12" x="213" y="362">
потвърждениеТикет()</text>
<line fill="#000000" stroke="#000000" stroke-width="1" x1="773" x2="773" y1="63" y2="68"/>
<line fill="#000000" stroke="#000000" stroke-width="1" x1="773" x2="773" y1="73" y2="78"/>
<line fill="#000000" stroke="#000000" stroke-width="1" x1="773" x2="773" y1="83" y2="88"/>
<line fill="#000000" stroke="#000000" stroke-width="1" x1="773" x2="773" y1="93" y2="98"/>
<line fill="#000000" stroke="#000000" stroke-width="1" x1="773" x2="773" y1="103" y2="108"/>
<line fill="#000000" stroke="#000000" stroke-width="1" x1="773" x2="773" y1="113" y2="118"/>
<line fill="#000000" stroke="#000000" stroke-width="1" x1="773" x2="773" y1="123" y2="128"/>
<line fill="#000000" stroke="#000000" stroke-width="1" x1="773" x2="773" y1="133" y2="138"/>
<line fill="#000000" stroke="#000000" stroke-width="1" x1="773" x2="773" y1="143" y2="148"/>
<line fill="#000000" stroke="#000000" stroke-width="1" x1="773" x2="773" y1="153" y2="158"/>
<line fill="#000000" stroke="#000000" stroke-width="1" x1="773" x2="773" y1="163" y2="168"/>
<line fill="#000000" stroke="#000000" stroke-width="1" x1="773" x2="773" y1="173" y2="178"/>
<line fill="#000000" stroke="#000000" stroke-width="1" x1="773" x2="773" y1="183" y2="188"/>
<line fill="#000000" stroke="#000000" stroke-width="1" x1="773" x2="773" y1="193" y2="198"/>
<line fill="#000000" stroke="#000000" stroke-width="1" x1="773" x2="773" y1="203" y2="208"/>
<line fill="#000000" stroke="#000000" stroke-width="1" x1="773" x2="773" y1="213" y2="218"/>
<line fill="#000000" stroke="#000000" stroke-width="1" x1="773" x2="773" y1="223" y2="228"/>
<line fill="#000000" stroke="#000000" stroke-width="1" x1="773" x2="773" y1="233" y2="238"/>
<line fill="#000000" stroke="#000000" stroke-width="1" x1="773" x2="773" y1="243" y2="248"/>
<line fill="#000000" stroke="#000000" stroke-width="1" x1="773" x2="773" y1="253" y2="258"/>
<line fill="#000000" stroke="#000000" stroke-width="1" x1="773" x2="773" y1="263" y2="268"/>
<line fill="#000000" stroke="#000000" stroke-width="1" x1="773" x2="773" y1="273" y2="278"/>
<line fill="#000000" stroke="#000000" stroke-width="1" x1="773" x2="773" y1="283" y2="288"/>
<line fill="#000000" stroke="#000000" stroke-width="1" x1="773" x2="773" y1="293" y2="298"/>
<line fill="#000000" stroke="#000000" stroke-width="1" x1="773" x2="773" y1="303" y2="308"/>
<line fill="#000000" stroke="#000000" stroke-width="1" x1="773" x2="773" y1="313" y2="318"/>
<line fill="#000000" stroke="#000000" stroke-width="1" x1="773" x2="773" y1="323" y2="328"/>
<line fill="#000000" stroke="#000000" stroke-width="1" x1="773" x2="773" y1="333" y2="338"/>
<line fill="#000000" stroke="#000000" stroke-width="1" x1="773" x2="773" y1="343" y2="348"/>
<line fill="#000000" stroke="#000000" stroke-width="1" x1="773" x2="773" y1="353" y2="358"/>
<line fill="#000000" stroke="#000000" stroke-width="1" x1="773" x2="773" y1="363" y2="368"/>
<line fill="#000000" stroke="#000000" stroke-width="1" x1="773" x2="773" y1="373" y2="378"/>
<line fill="#000000" stroke="#000000" stroke-width="1" x1="773" x2="773" y1="383" y2="388"/>
<line fill="#000000" stroke="#000000" stroke-width="1" x1="773" x2="773" y1="393" y2="398"/>
<line fill="#000000" stroke="#000000" stroke-width="1" x1="773" x2="773" y1="403" y2="408"/>
<rect fill="#ffffff" height="347" stroke="#ffffff" stroke-width="1" width="20" x="763" y="63"/>
<rect fill="none" height="347" stroke="#000000" stroke-width="1" width="20" x="763" y="63"/>
<rect fill="#ffffff" height="50" stroke="#ffffff" stroke-width="1" width="287" x="630" y="14"/>
<rect fill="none" height="50" stroke="#000000" stroke-width="1" width="287" x="630" y="14"/>
<text font-family="Dialog" font-size="12" x="640" y="27">
/Подсистема за управление на данните</text>
<polyline fill="none" points="491,374 763,374" stroke="#000000" stroke-width="1"/>
<line fill="#000000" stroke="#000000" stroke-width="1" x1="751" x2="763" y1="381" y2="374"/>
<line fill="#000000" stroke="#000000" stroke-width="1" x1="751" x2="763" y1="367" y2="374"/>
<text font-family="Dialog" font-size="12" x="527" y="367">
промениТикет (новиПараметри)</text>
<rect fill="none" height="64" stroke="#000000" stroke-width="1" width="808" x="62" y="278"/>
<text font-family="Dialog" font-size="12" x="86" y="330">
докато потребителят желае да трие файлове *</text>
<polyline fill="none" points="491,150 763,150" stroke="#000000" stroke-width="1"/>
<line fill="#000000" stroke="#000000" stroke-width="1" x1="751" x2="763" y1="157" y2="150"/>
<line fill="#000000" stroke="#000000" stroke-width="1" x1="751" x2="763" y1="143" y2="150"/>
<text font-family="Dialog" font-size="12" x="516" y="145">
търсенеТикети (критерии)</text>
<line fill="#000000" stroke="#000000" stroke-width="1" x1="763" x2="758" y1="198" y2="198"/>
<line fill="#000000" stroke="#000000" stroke-width="1" x1="753" x2="748" y1="198" y2="198"/>
<line fill="#000000" stroke="#000000" stroke-width="1" x1="743" x2="738" y1="198" y2="198"/>
<line fill="#000000" stroke="#000000" stroke-width="1" x1="733" x2="728" y1="198" y2="198"/>
<line fill="#000000" stroke="#000000" stroke-width="1" x1="723" x2="718" y1="198" y2="198"/>
<line fill="#000000" stroke="#000000" stroke-width="1" x1="713" x2="708" y1="198" y2="198"/>
<line fill="#000000" stroke="#000000" stroke-width="1" x1="703" x2="698" y1="198" y2="198"/>
<line fill="#000000" stroke="#000000" stroke-width="1" x1="693" x2="688" y1="198" y2="198"/>
<line fill="#000000" stroke="#000000" stroke-width="1" x1="683" x2="678" y1="198" y2="198"/>
<line fill="#000000" stroke="#000000" stroke-width="1" x1="673" x2="668" y1="198" y2="198"/>
<line fill="#000000" stroke="#000000" stroke-width="1" x1="663" x2="658" y1="198" y2="198"/>
<line fill="#000000" stroke="#000000" stroke-width="1" x1="653" x2="648" y1="198" y2="198"/>
<line fill="#000000" stroke="#000000" stroke-width="1" x1="643" x2="638" y1="198" y2="198"/>
<line fill="#000000" stroke="#000000" stroke-width="1" x1="633" x2="628" y1="198" y2="198"/>
<line fill="#000000" stroke="#000000" stroke-width="1" x1="623" x2="618" y1="198" y2="198"/>
<line fill="#000000" stroke="#000000" stroke-width="1" x1="613" x2="608" y1="198" y2="198"/>
<line fill="#000000" stroke="#000000" stroke-width="1" x1="603" x2="598" y1="198" y2="198"/>
<line fill="#000000" stroke="#000000" stroke-width="1" x1="593" x2="588" y1="198" y2="198"/>
<line fill="#000000" stroke="#000000" stroke-width="1" x1="583" x2="578" y1="198" y2="198"/>
<line fill="#000000" stroke="#000000" stroke-width="1" x1="573" x2="568" y1="198" y2="198"/>
<line fill="#000000" stroke="#000000" stroke-width="1" x1="563" x2="558" y1="198" y2="198"/>
<line fill="#000000" stroke="#000000" stroke-width="1" x1="553" x2="548" y1="198" y2="198"/>
<line fill="#000000" stroke="#000000" stroke-width="1" x1="543" x2="538" y1="198" y2="198"/>
<line fill="#000000" stroke="#000000" stroke-width="1" x1="533" x2="528" y1="198" y2="198"/>
<line fill="#000000" stroke="#000000" stroke-width="1" x1="523" x2="518" y1="198" y2="198"/>
<line fill="#000000" stroke="#000000" stroke-width="1" x1="513" x2="508" y1="198" y2="198"/>
<line fill="#000000" stroke="#000000" stroke-width="1" x1="503" x2="498" y1="198" y2="198"/>
<line fill="#000000" stroke="#000000" stroke-width="1" x1="493" x2="491" y1="198" y2="198"/>
<line fill="#000000" stroke="#000000" stroke-width="1" x1="503" x2="491" y1="191" y2="198"/>
<line fill="#000000" stroke="#000000" stroke-width="1" x1="503" x2="491" y1="205" y2="198"/>
<text font-family="Dialog" font-size="12" x="518" y="194">
списъкНамерениТикети()</text>
<line fill="#000000" stroke="#000000" stroke-width="1" x1="471" x2="466" y1="134" y2="134"/>
<line fill="#000000" stroke="#000000" stroke-width="1" x1="461" x2="456" y1="134" y2="134"/>
<line fill="#000000" stroke="#000000" stroke-width="1" x1="451" x2="446" y1="134" y2="134"/>
<line fill="#000000" stroke="#000000" stroke-width="1" x1="441" x2="436" y1="134" y2="134"/>
<line fill="#000000" stroke="#000000" stroke-width="1" x1="431" x2="426" y1="134" y2="134"/>
<line fill="#000000" stroke="#000000" stroke-width="1" x1="421" x2="416" y1="134" y2="134"/>
<line fill="#000000" stroke="#000000" stroke-width="1" x1="411" x2="406" y1="134" y2="134"/>
<line fill="#000000" stroke="#000000" stroke-width="1" x1="401" x2="396" y1="134" y2="134"/>
<line fill="#000000" stroke="#000000" stroke-width="1" x1="391" x2="386" y1="134" y2="134"/>
<line fill="#000000" stroke="#000000" stroke-width="1" x1="381" x2="376" y1="134" y2="134"/>
<line fill="#000000" stroke="#000000" stroke-width="1" x1="371" x2="366" y1="134" y2="134"/>
<line fill="#000000" stroke="#000000" stroke-width="1" x1="361" x2="356" y1="134" y2="134"/>
<line fill="#000000" stroke="#000000" stroke-width="1" x1="351" x2="346" y1="134" y2="134"/>
<line fill="#000000" stroke="#000000" stroke-width="1" x1="341" x2="336" y1="134" y2="134"/>
<line fill="#000000" stroke="#000000" stroke-width="1" x1="331" x2="326" y1="134" y2="134"/>
<line fill="#000000" stroke="#000000" stroke-width="1" x1="321" x2="316" y1="134" y2="134"/>
<line fill="#000000" stroke="#000000" stroke-width="1" x1="311" x2="306" y1="134" y2="134"/>
<line fill="#000000" stroke="#000000" stroke-width="1" x1="301" x2="296" y1="134" y2="134"/>
<line fill="#000000" stroke="#000000" stroke-width="1" x1="291" x2="286" y1="134" y2="134"/>
<line fill="#000000" stroke="#000000" stroke-width="1" x1="281" x2="276" y1="134" y2="134"/>
<line fill="#000000" stroke="#000000" stroke-width="1" x1="271" x2="266" y1="134" y2="134"/>
<line fill="#000000" stroke="#000000" stroke-width="1" x1="261" x2="256" y1="134" y2="134"/>
<line fill="#000000" stroke="#000000" stroke-width="1" x1="251" x2="246" y1="134" y2="134"/>
<line fill="#000000" stroke="#000000" stroke-width="1" x1="241" x2="236" y1="134" y2="134"/>
<line fill="#000000" stroke="#000000" stroke-width="1" x1="231" x2="226" y1="134" y2="134"/>
<line fill="#000000" stroke="#000000" stroke-width="1" x1="221" x2="216" y1="134" y2="134"/>
<line fill="#000000" stroke="#000000" stroke-width="1" x1="211" x2="206" y1="134" y2="134"/>
<line fill="#000000" stroke="#000000" stroke-width="1" x1="201" x2="196" y1="134" y2="134"/>
<line fill="#000000" stroke="#000000" stroke-width="1" x1="191" x2="186" y1="134" y2="134"/>
<line fill="#000000" stroke="#000000" stroke-width="1" x1="181" x2="176" y1="134" y2="134"/>
<line fill="#000000" stroke="#000000" stroke-width="1" x1="171" x2="166" y1="134" y2="134"/>
<line fill="#000000" stroke="#000000" stroke-width="1" x1="161" x2="156" y1="134" y2="134"/>
<line fill="#000000" stroke="#000000" stroke-width="1" x1="151" x2="146" y1="134" y2="134"/>
<line fill="#000000" stroke="#000000" stroke-width="1" x1="141" x2="136" y1="134" y2="134"/>
<line fill="#000000" stroke="#000000" stroke-width="1" x1="131" x2="126" y1="134" y2="134"/>
<line fill="#000000" stroke="#000000" stroke-width="1" x1="121" x2="116" y1="134" y2="134"/>
<line fill="#000000" stroke="#000000" stroke-width="1" x1="111" x2="106" y1="134" y2="134"/>
<line fill="#000000" stroke="#000000" stroke-width="1" x1="101" x2="100" y1="134" y2="134"/>
<line fill="#000000" stroke="#000000" stroke-width="1" x1="112" x2="100" y1="127" y2="134"/>
<line fill="#000000" stroke="#000000" stroke-width="1" x1="112" x2="100" y1="141" y2="134"/>
<text font-family="Dialog" font-size="12" x="242" y="129">
полетаЗатърсене()</text>
<line fill="#000000" stroke="#000000" stroke-width="1" x1="471" x2="466" y1="86" y2="86"/>
<line fill="#000000" stroke="#000000" stroke-width="1" x1="461" x2="456" y1="86" y2="86"/>
<line fill="#000000" stroke="#000000" stroke-width="1" x1="451" x2="446" y1="86" y2="86"/>
<line fill="#000000" stroke="#000000" stroke-width="1" x1="441" x2="436" y1="86" y2="86"/>
<line fill="#000000" stroke="#000000" stroke-width="1" x1="431" x2="426" y1="86" y2="86"/>
<line fill="#000000" stroke="#000000" stroke-width="1" x1="421" x2="416" y1="86" y2="86"/>
<line fill="#000000" stroke="#000000" stroke-width="1" x1="411" x2="406" y1="86" y2="86"/>
<line fill="#000000" stroke="#000000" stroke-width="1" x1="401" x2="396" y1="86" y2="86"/>
<line fill="#000000" stroke="#000000" stroke-width="1" x1="391" x2="386" y1="86" y2="86"/>
<line fill="#000000" stroke="#000000" stroke-width="1" x1="381" x2="376" y1="86" y2="86"/>
<line fill="#000000" stroke="#000000" stroke-width="1" x1="371" x2="366" y1="86" y2="86"/>
<line fill="#000000" stroke="#000000" stroke-width="1" x1="361" x2="356" y1="86" y2="86"/>
<line fill="#000000" stroke="#000000" stroke-width="1" x1="351" x2="346" y1="86" y2="86"/>
<line fill="#000000" stroke="#000000" stroke-width="1" x1="341" x2="336" y1="86" y2="86"/>
<line fill="#000000" stroke="#000000" stroke-width="1" x1="331" x2="326" y1="86" y2="86"/>
<line fill="#000000" stroke="#000000" stroke-width="1" x1="321" x2="316" y1="86" y2="86"/>
<line fill="#000000" stroke="#000000" stroke-width="1" x1="311" x2="306" y1="86" y2="86"/>
<line fill="#000000" stroke="#000000" stroke-width="1" x1="301" x2="296" y1="86" y2="86"/>
<line fill="#000000" stroke="#000000" stroke-width="1" x1="291" x2="286" y1="86" y2="86"/>
<line fill="#000000" stroke="#000000" stroke-width="1" x1="281" x2="276" y1="86" y2="86"/>
<line fill="#000000" stroke="#000000" stroke-width="1" x1="271" x2="266" y1="86" y2="86"/>
<line fill="#000000" stroke="#000000" stroke-width="1" x1="261" x2="256" y1="86" y2="86"/>
<line fill="#000000" stroke="#000000" stroke-width="1" x1="251" x2="246" y1="86" y2="86"/>
<line fill="#000000" stroke="#000000" stroke-width="1" x1="241" x2="236" y1="86" y2="86"/>
<line fill="#000000" stroke="#000000" stroke-width="1" x1="231" x2="226" y1="86" y2="86"/>
<line fill="#000000" stroke="#000000" stroke-width="1" x1="221" x2="216" y1="86" y2="86"/>
<line fill="#000000" stroke="#000000" stroke-width="1" x1="211" x2="206" y1="86" y2="86"/>
<line fill="#000000" stroke="#000000" stroke-width="1" x1="201" x2="196" y1="86" y2="86"/>
<line fill="#000000" stroke="#000000" stroke-width="1" x1="191" x2="186" y1="86" y2="86"/>
<line fill="#000000" stroke="#000000" stroke-width="1" x1="181" x2="176" y1="86" y2="86"/>
<line fill="#000000" stroke="#000000" stroke-width="1" x1="171" x2="166" y1="86" y2="86"/>
<line fill="#000000" stroke="#000000" stroke-width="1" x1="161" x2="156" y1="86" y2="86"/>
<line fill="#000000" stroke="#000000" stroke-width="1" x1="151" x2="146" y1="86" y2="86"/>
<line fill="#000000" stroke="#000000" stroke-width="1" x1="141" x2="136" y1="86" y2="86"/>
<line fill="#000000" stroke="#000000" stroke-width="1" x1="131" x2="126" y1="86" y2="86"/>
<line fill="#000000" stroke="#000000" stroke-width="1" x1="121" x2="116" y1="86" y2="86"/>
<line fill="#000000" stroke="#000000" stroke-width="1" x1="111" x2="106" y1="86" y2="86"/>
<line fill="#000000" stroke="#000000" stroke-width="1" x1="101" x2="100" y1="86" y2="86"/>
<line fill="#000000" stroke="#000000" stroke-width="1" x1="112" x2="100" y1="79" y2="86"/>
<line fill="#000000" stroke="#000000" stroke-width="1" x1="112" x2="100" y1="93" y2="86"/>
<text font-family="Dialog" font-size="12" x="242" y="81">
списъкОтТикети()</text>
<polyline fill="none" points="100,118 471,118" stroke="#000000" stroke-width="1"/>
<line fill="#000000" stroke="#000000" stroke-width="1" x1="459" x2="471" y1="125" y2="118"/>
<line fill="#000000" stroke="#000000" stroke-width="1" x1="459" x2="471" y1="111" y2="118"/>
<text font-family="Dialog" font-size="12" x="233" y="113">
търсене()</text>
<polyline fill="none" points="100,158 471,158" stroke="#000000" stroke-width="1"/>
<line fill="#000000" stroke="#000000" stroke-width="1" x1="459" x2="471" y1="165" y2="158"/>
<line fill="#000000" stroke="#000000" stroke-width="1" x1="459" x2="471" y1="151" y2="158"/>
<text font-family="Dialog" font-size="12" x="237" y="153">
търсене (критерии)</text>
<line fill="#000000" stroke="#000000" stroke-width="1" x1="471" x2="466" y1="194" y2="194"/>
<line fill="#000000" stroke="#000000" stroke-width="1" x1="461" x2="456" y1="194" y2="194"/>
<line fill="#000000" stroke="#000000" stroke-width="1" x1="451" x2="446" y1="194" y2="194"/>
<line fill="#000000" stroke="#000000" stroke-width="1" x1="441" x2="436" y1="194" y2="194"/>
<line fill="#000000" stroke="#000000" stroke-width="1" x1="431" x2="426" y1="194" y2="194"/>
<line fill="#000000" stroke="#000000" stroke-width="1" x1="421" x2="416" y1="194" y2="194"/>
<line fill="#000000" stroke="#000000" stroke-width="1" x1="411" x2="406" y1="194" y2="194"/>
<line fill="#000000" stroke="#000000" stroke-width="1" x1="401" x2="396" y1="194" y2="194"/>
<line fill="#000000" stroke="#000000" stroke-width="1" x1="391" x2="386" y1="194" y2="194"/>
<line fill="#000000" stroke="#000000" stroke-width="1" x1="381" x2="376" y1="194" y2="194"/>
<line fill="#000000" stroke="#000000" stroke-width="1" x1="371" x2="366" y1="194" y2="194"/>
<line fill="#000000" stroke="#000000" stroke-width="1" x1="361" x2="356" y1="194" y2="194"/>
<line fill="#000000" stroke="#000000" stroke-width="1" x1="351" x2="346" y1="194" y2="194"/>
<line fill="#000000" stroke="#000000" stroke-width="1" x1="341" x2="336" y1="194" y2="194"/>
<line fill="#000000" stroke="#000000" stroke-width="1" x1="331" x2="326" y1="194" y2="194"/>
<line fill="#000000" stroke="#000000" stroke-width="1" x1="321" x2="316" y1="194" y2="194"/>
<line fill="#000000" stroke="#000000" stroke-width="1" x1="311" x2="306" y1="194" y2="194"/>
<line fill="#000000" stroke="#000000" stroke-width="1" x1="301" x2="296" y1="194" y2="194"/>
<line fill="#000000" stroke="#000000" stroke-width="1" x1="291" x2="286" y1="194" y2="194"/>
<line fill="#000000" stroke="#000000" stroke-width="1" x1="281" x2="276" y1="194" y2="194"/>
<line fill="#000000" stroke="#000000" stroke-width="1" x1="271" x2="266" y1="194" y2="194"/>
<line fill="#000000" stroke="#000000" stroke-width="1" x1="261" x2="256" y1="194" y2="194"/>
<line fill="#000000" stroke="#000000" stroke-width="1" x1="251" x2="246" y1="194" y2="194"/>
<line fill="#000000" stroke="#000000" stroke-width="1" x1="241" x2="236" y1="194" y2="194"/>
<line fill="#000000" stroke="#000000" stroke-width="1" x1="231" x2="226" y1="194" y2="194"/>
<line fill="#000000" stroke="#000000" stroke-width="1" x1="221" x2="216" y1="194" y2="194"/>
<line fill="#000000" stroke="#000000" stroke-width="1" x1="211" x2="206" y1="194" y2="194"/>
<line fill="#000000" stroke="#000000" stroke-width="1" x1="201" x2="196" y1="194" y2="194"/>
<line fill="#000000" stroke="#000000" stroke-width="1" x1="191" x2="186" y1="194" y2="194"/>
<line fill="#000000" stroke="#000000" stroke-width="1" x1="181" x2="176" y1="194" y2="194"/>
<line fill="#000000" stroke="#000000" stroke-width="1" x1="171" x2="166" y1="194" y2="194"/>
<line fill="#000000" stroke="#000000" stroke-width="1" x1="161" x2="156" y1="194" y2="194"/>
<line fill="#000000" stroke="#000000" stroke-width="1" x1="151" x2="146" y1="194" y2="194"/>
<line fill="#000000" stroke="#000000" stroke-width="1" x1="141" x2="136" y1="194" y2="194"/>
<line fill="#000000" stroke="#000000" stroke-width="1" x1="131" x2="126" y1="194" y2="194"/>
<line fill="#000000" stroke="#000000" stroke-width="1" x1="121" x2="116" y1="194" y2="194"/>
<line fill="#000000" stroke="#000000" stroke-width="1" x1="111" x2="106" y1="194" y2="194"/>
<line fill="#000000" stroke="#000000" stroke-width="1" x1="101" x2="100" y1="194" y2="194"/>
<line fill="#000000" stroke="#000000" stroke-width="1" x1="112" x2="100" y1="187" y2="194"/>
<line fill="#000000" stroke="#000000" stroke-width="1" x1="112" x2="100" y1="201" y2="194"/>
<text font-family="Dialog" font-size="12" x="242" y="189">
списъкНамерениТикети()</text>
<polyline fill="none" points="100,262 471,262" stroke="#000000" stroke-width="1"/>
<line fill="#000000" stroke="#000000" stroke-width="1" x1="459" x2="471" y1="269" y2="262"/>
<line fill="#000000" stroke="#000000" stroke-width="1" x1="459" x2="471" y1="255" y2="262"/>
<text font-family="Dialog" font-size="12" x="170" y="257">
промянаНаПриоритет (тикет, приоритет)</text>
<polyline fill="none" points="100,294 471,294" stroke="#000000" stroke-width="1"/>
<line fill="#000000" stroke="#000000" stroke-width="1" x1="459" x2="471" y1="301" y2="294"/>
<line fill="#000000" stroke="#000000" stroke-width="1" x1="459" x2="471" y1="287" y2="294"/>
<text font-family="Dialog" font-size="12" x="197" y="290">
изтриванеНаФайл (тикет, файл)</text>
</svg>
