<?xml version="1.0" encoding="utf-8" ?>
<!DOCTYPE svg PUBLIC "-//W3C//DTD SVG 1.1//EN" "http://www.w3.org/Graphics/SVG/1.1/DTD/svg11.dtd">
<svg height="425" version="1.1" width="1098" xmlns="http://www.w3.org/2000/svg">
<line fill="#000000" stroke="#000000" stroke-width="1" x1="90" x2="90" y1="63" y2="68"/>
<line fill="#000000" stroke="#000000" stroke-width="1" x1="90" x2="90" y1="73" y2="78"/>
<line fill="#000000" stroke="#000000" stroke-width="1" x1="90" x2="90" y1="83" y2="88"/>
<line fill="#000000" stroke="#000000" stroke-width="1" x1="90" x2="90" y1="93" y2="98"/>
<line fill="#000000" stroke="#000000" stroke-width="1" x1="90" x2="90" y1="103" y2="108"/>
<line fill="#000000" stroke="#000000" stroke-width="1" x1="90" x2="90" y1="113" y2="118"/>
<line fill="#000000" stroke="#000000" stroke-width="1" x1="90" x2="90" y1="123" y2="128"/>
<line fill="#000000" stroke="#000000" stroke-width="1" x1="90" x2="90" y1="133" y2="138"/>
<line fill="#000000" stroke="#000000" stroke-width="1" x1="90" x2="90" y1="143" y2="148"/>
<line fill="#000000" stroke="#000000" stroke-width="1" x1="90" x2="90" y1="153" y2="158"/>
<line fill="#000000" stroke="#000000" stroke-width="1" x1="90" x2="90" y1="163" y2="168"/>
<line fill="#000000" stroke="#000000" stroke-width="1" x1="90" x2="90" y1="173" y2="178"/>
<line fill="#000000" stroke="#000000" stroke-width="1" x1="90" x2="90" y1="183" y2="188"/>
<line fill="#000000" stroke="#000000" stroke-width="1" x1="90" x2="90" y1="193" y2="198"/>
<line fill="#000000" stroke="#000000" stroke-width="1" x1="90" x2="90" y1="203" y2="208"/>
<line fill="#000000" stroke="#000000" stroke-width="1" x1="90" x2="90" y1="213" y2="218"/>
<line fill="#000000" stroke="#000000" stroke-width="1" x1="90" x2="90" y1="223" y2="228"/>
<line fill="#000000" stroke="#000000" stroke-width="1" x1="90" x2="90" y1="233" y2="238"/>
<line fill="#000000" stroke="#000000" stroke-width="1" x1="90" x2="90" y1="243" y2="248"/>
<line fill="#000000" stroke="#000000" stroke-width="1" x1="90" x2="90" y1="253" y2="258"/>
<line fill="#000000" stroke="#000000" stroke-width="1" x1="90" x2="90" y1="263" y2="268"/>
<line fill="#000000" stroke="#000000" stroke-width="1" x1="90" x2="90" y1="273" y2="278"/>
<line fill="#000000" stroke="#000000" stroke-width="1" x1="90" x2="90" y1="283" y2="288"/>
<line fill="#000000" stroke="#000000" stroke-width="1" x1="90" x2="90" y1="293" y2="298"/>
<line fill="#000000" stroke="#000000" stroke-width="1" x1="90" x2="90" y1="303" y2="308"/>
<line fill="#000000" stroke="#000000" stroke-width="1" x1="90" x2="90" y1="313" y2="318"/>
<line fill="#000000" stroke="#000000" stroke-width="1" x1="90" x2="90" y1="323" y2="328"/>
<line fill="#000000" stroke="#000000" stroke-width="1" x1="90" x2="90" y1="333" y2="338"/>
<line fill="#000000" stroke="#000000" stroke-width="1" x1="90" x2="90" y1="343" y2="348"/>
<line fill="#000000" stroke="#000000" stroke-width="1" x1="90" x2="90" y1="353" y2="358"/>
<line fill="#000000" stroke="#000000" stroke-width="1" x1="90" x2="90" y1="363" y2="368"/>
<line fill="#000000" stroke="#000000" stroke-width="1" x1="90" x2="90" y1="373" y2="378"/>
<line fill="#000000" stroke="#000000" stroke-width="1" x1="90" x2="90" y1="383" y2="388"/>
<line fill="#000000" stroke="#000000" stroke-width="1" x1="90" x2="90" y1="393" y2="398"/>
<line fill="#000000" stroke="#000000" stroke-width="1" x1="90" x2="90" y1="403" y2="408"/>
<rect fill="#ffffff" height="347" stroke="#ffffff" stroke-width="1" width="20" x="80" y="63"/>
<rect fill="none" height="347" stroke="#000000" stroke-width="1" width="20" x="80" y="63"/>
<rect fill="#ffffff" height="50" stroke="#ffffff" stroke-width="1" width="152" x="14" y="14"/>
<rect fill="none" height="50" stroke="#000000" stroke-width="1" width="152" x="14" y="14"/>
<text font-family="Dialog" font-size="12" x="47" y="27">
/Потребител</text>
<line fill="#000000" stroke="#000000" stroke-width="1" x1="481" x2="481" y1="63" y2="68"/>
<line fill="#000000" stroke="#000000" stroke-width="1" x1="481" x2="481" y1="73" y2="78"/>
<line fill="#000000" stroke="#000000" stroke-width="1" x1="481" x2="481" y1="83" y2="88"/>
<line fill="#000000" stroke="#000000" stroke-width="1" x1="481" x2="481" y1="93" y2="98"/>
<line fill="#000000" stroke="#000000" stroke-width="1" x1="481" x2="481" y1="103" y2="108"/>
<line fill="#000000" stroke="#000000" stroke-width="1" x1="481" x2="481" y1="113" y2="118"/>
<line fill="#000000" stroke="#000000" stroke-width="1" x1="481" x2="481" y1="123" y2="128"/>
<line fill="#000000" stroke="#000000" stroke-width="1" x1="481" x2="481" y1="133" y2="138"/>
<line fill="#000000" stroke="#000000" stroke-width="1" x1="481" x2="481" y1="143" y2="148"/>
<line fill="#000000" stroke="#000000" stroke-width="1" x1="481" x2="481" y1="153" y2="158"/>
<line fill="#000000" stroke="#000000" stroke-width="1" x1="481" x2="481" y1="163" y2="168"/>
<line fill="#000000" stroke="#000000" stroke-width="1" x1="481" x2="481" y1="173" y2="178"/>
<line fill="#000000" stroke="#000000" stroke-width="1" x1="481" x2="481" y1="183" y2="188"/>
<line fill="#000000" stroke="#000000" stroke-width="1" x1="481" x2="481" y1="193" y2="198"/>
<line fill="#000000" stroke="#000000" stroke-width="1" x1="481" x2="481" y1="203" y2="208"/>
<line fill="#000000" stroke="#000000" stroke-width="1" x1="481" x2="481" y1="213" y2="218"/>
<line fill="#000000" stroke="#000000" stroke-width="1" x1="481" x2="481" y1="223" y2="228"/>
<line fill="#000000" stroke="#000000" stroke-width="1" x1="481" x2="481" y1="233" y2="238"/>
<line fill="#000000" stroke="#000000" stroke-width="1" x1="481" x2="481" y1="243" y2="248"/>
<line fill="#000000" stroke="#000000" stroke-width="1" x1="481" x2="481" y1="253" y2="258"/>
<line fill="#000000" stroke="#000000" stroke-width="1" x1="481" x2="481" y1="263" y2="268"/>
<line fill="#000000" stroke="#000000" stroke-width="1" x1="481" x2="481" y1="273" y2="278"/>
<line fill="#000000" stroke="#000000" stroke-width="1" x1="481" x2="481" y1="283" y2="288"/>
<line fill="#000000" stroke="#000000" stroke-width="1" x1="481" x2="481" y1="293" y2="298"/>
<line fill="#000000" stroke="#000000" stroke-width="1" x1="481" x2="481" y1="303" y2="308"/>
<line fill="#000000" stroke="#000000" stroke-width="1" x1="481" x2="481" y1="313" y2="318"/>
<line fill="#000000" stroke="#000000" stroke-width="1" x1="481" x2="481" y1="323" y2="328"/>
<line fill="#000000" stroke="#000000" stroke-width="1" x1="481" x2="481" y1="333" y2="338"/>
<line fill="#000000" stroke="#000000" stroke-width="1" x1="481" x2="481" y1="343" y2="348"/>
<line fill="#000000" stroke="#000000" stroke-width="1" x1="481" x2="481" y1="353" y2="358"/>
<line fill="#000000" stroke="#000000" stroke-width="1" x1="481" x2="481" y1="363" y2="368"/>
<line fill="#000000" stroke="#000000" stroke-width="1" x1="481" x2="481" y1="373" y2="378"/>
<line fill="#000000" stroke="#000000" stroke-width="1" x1="481" x2="481" y1="383" y2="388"/>
<line fill="#000000" stroke="#000000" stroke-width="1" x1="481" x2="481" y1="393" y2="398"/>
<line fill="#000000" stroke="#000000" stroke-width="1" x1="481" x2="481" y1="403" y2="408"/>
<rect fill="#ffffff" height="347" stroke="#ffffff" stroke-width="1" width="20" x="471" y="63"/>
<rect fill="none" height="347" stroke="#000000" stroke-width="1" width="20" x="471" y="63"/>
<rect fill="#ffffff" height="50" stroke="#ffffff" stroke-width="1" width="166" x="398" y="14"/>
<rect fill="none" height="50" stroke="#000000" stroke-width="1" width="166" x="398" y="14"/>
<text font-family="Dialog" font-size="12" x="402" y="27">
/Подсистема за тикети</text>
<polyline fill="none" points="100,150 471,150" stroke="#000000" stroke-width="1"/>
<line fill="#000000" stroke="#000000" stroke-width="1" x1="459" x2="471" y1="157" y2="150"/>
<line fill="#000000" stroke="#000000" stroke-width="1" x1="459" x2="471" y1="143" y2="150"/>
<text font-family="Dialog" font-size="12" x="211" y="146">
заглавиеТикет (заглавие)</text>
<polyline fill="none" points="100,206 471,206" stroke="#000000" stroke-width="1"/>
<line fill="#000000" stroke="#000000" stroke-width="1" x1="459" x2="471" y1="213" y2="206"/>
<line fill="#000000" stroke="#000000" stroke-width="1" x1="459" x2="471" y1="199" y2="206"/>
<text font-family="Dialog" font-size="12" x="212" y="202">
описаниеТикет (описание)</text>
<polyline fill="none" points="100,254 471,254" stroke="#000000" stroke-width="1"/>
<line fill="#000000" stroke="#000000" stroke-width="1" x1="459" x2="471" y1="261" y2="254"/>
<line fill="#000000" stroke="#000000" stroke-width="1" x1="459" x2="471" y1="247" y2="254"/>
<text font-family="Dialog" font-size="12" x="212" y="250">
прикачванеКъмТикет (файл)</text>
<polyline fill="none" points="100,318 471,318" stroke="#000000" stroke-width="1"/>
<line fill="#000000" stroke="#000000" stroke-width="1" x1="459" x2="471" y1="325" y2="318"/>
<line fill="#000000" stroke="#000000" stroke-width="1" x1="459" x2="471" y1="311" y2="318"/>
<text font-family="Dialog" font-size="12" x="198" y="314">
приоритетТикет (приоритет)</text>
<polyline fill="none" points="100,350 471,350" stroke="#000000" stroke-width="1"/>
<line fill="#000000" stroke="#000000" stroke-width="1" x1="459" x2="471" y1="357" y2="350"/>
<line fill="#000000" stroke="#000000" stroke-width="1" x1="459" x2="471" y1="343" y2="350"/>
<text font-family="Dialog" font-size="12" x="213" y="346">
потвърждениеТикет()</text>
<polyline fill="none" points="100,110 471,110" stroke="#000000" stroke-width="1"/>
<line fill="#000000" stroke="#000000" stroke-width="1" x1="459" x2="471" y1="117" y2="110"/>
<line fill="#000000" stroke="#000000" stroke-width="1" x1="459" x2="471" y1="103" y2="110"/>
<text font-family="Dialog" font-size="12" x="211" y="106">
тикетЗа (отдел)</text>
<line fill="#000000" stroke="#000000" stroke-width="1" x1="1009" x2="1009" y1="63" y2="68"/>
<line fill="#000000" stroke="#000000" stroke-width="1" x1="1009" x2="1009" y1="73" y2="78"/>
<line fill="#000000" stroke="#000000" stroke-width="1" x1="1009" x2="1009" y1="83" y2="88"/>
<line fill="#000000" stroke="#000000" stroke-width="1" x1="1009" x2="1009" y1="93" y2="98"/>
<line fill="#000000" stroke="#000000" stroke-width="1" x1="1009" x2="1009" y1="103" y2="108"/>
<line fill="#000000" stroke="#000000" stroke-width="1" x1="1009" x2="1009" y1="113" y2="118"/>
<line fill="#000000" stroke="#000000" stroke-width="1" x1="1009" x2="1009" y1="123" y2="128"/>
<line fill="#000000" stroke="#000000" stroke-width="1" x1="1009" x2="1009" y1="133" y2="138"/>
<line fill="#000000" stroke="#000000" stroke-width="1" x1="1009" x2="1009" y1="143" y2="148"/>
<line fill="#000000" stroke="#000000" stroke-width="1" x1="1009" x2="1009" y1="153" y2="158"/>
<line fill="#000000" stroke="#000000" stroke-width="1" x1="1009" x2="1009" y1="163" y2="168"/>
<line fill="#000000" stroke="#000000" stroke-width="1" x1="1009" x2="1009" y1="173" y2="178"/>
<line fill="#000000" stroke="#000000" stroke-width="1" x1="1009" x2="1009" y1="183" y2="188"/>
<line fill="#000000" stroke="#000000" stroke-width="1" x1="1009" x2="1009" y1="193" y2="198"/>
<line fill="#000000" stroke="#000000" stroke-width="1" x1="1009" x2="1009" y1="203" y2="208"/>
<line fill="#000000" stroke="#000000" stroke-width="1" x1="1009" x2="1009" y1="213" y2="218"/>
<line fill="#000000" stroke="#000000" stroke-width="1" x1="1009" x2="1009" y1="223" y2="228"/>
<line fill="#000000" stroke="#000000" stroke-width="1" x1="1009" x2="1009" y1="233" y2="238"/>
<line fill="#000000" stroke="#000000" stroke-width="1" x1="1009" x2="1009" y1="243" y2="248"/>
<line fill="#000000" stroke="#000000" stroke-width="1" x1="1009" x2="1009" y1="253" y2="258"/>
<line fill="#000000" stroke="#000000" stroke-width="1" x1="1009" x2="1009" y1="263" y2="268"/>
<line fill="#000000" stroke="#000000" stroke-width="1" x1="1009" x2="1009" y1="273" y2="278"/>
<line fill="#000000" stroke="#000000" stroke-width="1" x1="1009" x2="1009" y1="283" y2="288"/>
<line fill="#000000" stroke="#000000" stroke-width="1" x1="1009" x2="1009" y1="293" y2="298"/>
<line fill="#000000" stroke="#000000" stroke-width="1" x1="1009" x2="1009" y1="303" y2="308"/>
<line fill="#000000" stroke="#000000" stroke-width="1" x1="1009" x2="1009" y1="313" y2="318"/>
<line fill="#000000" stroke="#000000" stroke-width="1" x1="1009" x2="1009" y1="323" y2="328"/>
<line fill="#000000" stroke="#000000" stroke-width="1" x1="1009" x2="1009" y1="333" y2="338"/>
<line fill="#000000" stroke="#000000" stroke-width="1" x1="1009" x2="1009" y1="343" y2="348"/>
<line fill="#000000" stroke="#000000" stroke-width="1" x1="1009" x2="1009" y1="353" y2="358"/>
<line fill="#000000" stroke="#000000" stroke-width="1" x1="1009" x2="1009" y1="363" y2="368"/>
<line fill="#000000" stroke="#000000" stroke-width="1" x1="1009" x2="1009" y1="373" y2="378"/>
<line fill="#000000" stroke="#000000" stroke-width="1" x1="1009" x2="1009" y1="383" y2="388"/>
<line fill="#000000" stroke="#000000" stroke-width="1" x1="1009" x2="1009" y1="393" y2="398"/>
<line fill="#000000" stroke="#000000" stroke-width="1" x1="1009" x2="1009" y1="403" y2="408"/>
<rect fill="#ffffff" height="347" stroke="#ffffff" stroke-width="1" width="20" x="999" y="63"/>
<rect fill="none" height="347" stroke="#000000" stroke-width="1" width="20" x="999" y="63"/>
<rect fill="#ffffff" height="50" stroke="#ffffff" stroke-width="1" width="150" x="934" y="14"/>
<rect fill="none" height="50" stroke="#000000" stroke-width="1" width="150" x="934" y="14"/>
<text font-family="Dialog" font-size="12" x="969" y="27">
/mail сървър</text>
<line fill="#000000" stroke="#000000" stroke-width="1" x1="773" x2="773" y1="63" y2="68"/>
<line fill="#000000" stroke="#000000" stroke-width="1" x1="773" x2="773" y1="73" y2="78"/>
<line fill="#000000" stroke="#000000" stroke-width="1" x1="773" x2="773" y1="83" y2="88"/>
<line fill="#000000" stroke="#000000" stroke-width="1" x1="773" x2="773" y1="93" y2="98"/>
<line fill="#000000" stroke="#000000" stroke-width="1" x1="773" x2="773" y1="103" y2="108"/>
<line fill="#000000" stroke="#000000" stroke-width="1" x1="773" x2="773" y1="113" y2="118"/>
<line fill="#000000" stroke="#000000" stroke-width="1" x1="773" x2="773" y1="123" y2="128"/>
<line fill="#000000" stroke="#000000" stroke-width="1" x1="773" x2="773" y1="133" y2="138"/>
<line fill="#000000" stroke="#000000" stroke-width="1" x1="773" x2="773" y1="143" y2="148"/>
<line fill="#000000" stroke="#000000" stroke-width="1" x1="773" x2="773" y1="153" y2="158"/>
<line fill="#000000" stroke="#000000" stroke-width="1" x1="773" x2="773" y1="163" y2="168"/>
<line fill="#000000" stroke="#000000" stroke-width="1" x1="773" x2="773" y1="173" y2="178"/>
<line fill="#000000" stroke="#000000" stroke-width="1" x1="773" x2="773" y1="183" y2="188"/>
<line fill="#000000" stroke="#000000" stroke-width="1" x1="773" x2="773" y1="193" y2="198"/>
<line fill="#000000" stroke="#000000" stroke-width="1" x1="773" x2="773" y1="203" y2="208"/>
<line fill="#000000" stroke="#000000" stroke-width="1" x1="773" x2="773" y1="213" y2="218"/>
<line fill="#000000" stroke="#000000" stroke-width="1" x1="773" x2="773" y1="223" y2="228"/>
<line fill="#000000" stroke="#000000" stroke-width="1" x1="773" x2="773" y1="233" y2="238"/>
<line fill="#000000" stroke="#000000" stroke-width="1" x1="773" x2="773" y1="243" y2="248"/>
<line fill="#000000" stroke="#000000" stroke-width="1" x1="773" x2="773" y1="253" y2="258"/>
<line fill="#000000" stroke="#000000" stroke-width="1" x1="773" x2="773" y1="263" y2="268"/>
<line fill="#000000" stroke="#000000" stroke-width="1" x1="773" x2="773" y1="273" y2="278"/>
<line fill="#000000" stroke="#000000" stroke-width="1" x1="773" x2="773" y1="283" y2="288"/>
<line fill="#000000" stroke="#000000" stroke-width="1" x1="773" x2="773" y1="293" y2="298"/>
<line fill="#000000" stroke="#000000" stroke-width="1" x1="773" x2="773" y1="303" y2="308"/>
<line fill="#000000" stroke="#000000" stroke-width="1" x1="773" x2="773" y1="313" y2="318"/>
<line fill="#000000" stroke="#000000" stroke-width="1" x1="773" x2="773" y1="323" y2="328"/>
<line fill="#000000" stroke="#000000" stroke-width="1" x1="773" x2="773" y1="333" y2="338"/>
<line fill="#000000" stroke="#000000" stroke-width="1" x1="773" x2="773" y1="343" y2="348"/>
<line fill="#000000" stroke="#000000" stroke-width="1" x1="773" x2="773" y1="353" y2="358"/>
<line fill="#000000" stroke="#000000" stroke-width="1" x1="773" x2="773" y1="363" y2="368"/>
<line fill="#000000" stroke="#000000" stroke-width="1" x1="773" x2="773" y1="373" y2="378"/>
<line fill="#000000" stroke="#000000" stroke-width="1" x1="773" x2="773" y1="383" y2="388"/>
<line fill="#000000" stroke="#000000" stroke-width="1" x1="773" x2="773" y1="393" y2="398"/>
<line fill="#000000" stroke="#000000" stroke-width="1" x1="773" x2="773" y1="403" y2="408"/>
<rect fill="#ffffff" height="347" stroke="#ffffff" stroke-width="1" width="20" x="763" y="63"/>
<rect fill="none" height="347" stroke="#000000" stroke-width="1" width="20" x="763" y="63"/>
<rect fill="#ffffff" height="50" stroke="#ffffff" stroke-width="1" width="287" x="630" y="14"/>
<rect fill="none" height="50" stroke="#000000" stroke-width="1" width="287" x="630" y="14"/>
<text font-family="Dialog" font-size="12" x="640" y="27">
/Подсистема за управление на данните</text>
<polyline fill="none" points="491,390 999,390" stroke="#000000" stroke-width="1"/>
<line fill="#000000" stroke="#000000" stroke-width="1" x1="987" x2="999" y1="397" y2="390"/>
<line fill="#000000" stroke="#000000" stroke-width="1" x1="987" x2="999" y1="383" y2="390"/>
<text font-family="Dialog" font-size="12" x="529" y="386">
колективноПисмо (получатели, тяло)</text>
<polyline fill="none" points="491,358 763,358" stroke="#000000" stroke-width="1"/>
<line fill="#000000" stroke="#000000" stroke-width="1" x1="751" x2="763" y1="365" y2="358"/>
<line fill="#000000" stroke="#000000" stroke-width="1" x1="751" x2="763" y1="351" y2="358"/>
<text font-family="Dialog" font-size="12" x="527" y="351">
създайТикет (статус=Свободен, заглавие, описание, файлове, приоритет)</text>
<rect fill="none" height="64" stroke="#000000" stroke-width="1" width="1000" x="62" y="222"/>
<text font-family="Dialog" font-size="12" x="70" y="282">
докато потребителят иска да прикачва *</text>
<polyline fill="none" points="491,150 763,150" stroke="#000000" stroke-width="1"/>
<line fill="#000000" stroke="#000000" stroke-width="1" x1="751" x2="763" y1="157" y2="150"/>
<line fill="#000000" stroke="#000000" stroke-width="1" x1="751" x2="763" y1="143" y2="150"/>
<text font-family="Dialog" font-size="12" x="516" y="145">
търсенеПодобниТикети (заглавие)</text>
<line fill="#000000" stroke="#000000" stroke-width="1" x1="763" x2="758" y1="174" y2="174"/>
<line fill="#000000" stroke="#000000" stroke-width="1" x1="753" x2="748" y1="174" y2="174"/>
<line fill="#000000" stroke="#000000" stroke-width="1" x1="743" x2="738" y1="174" y2="174"/>
<line fill="#000000" stroke="#000000" stroke-width="1" x1="733" x2="728" y1="174" y2="174"/>
<line fill="#000000" stroke="#000000" stroke-width="1" x1="723" x2="718" y1="174" y2="174"/>
<line fill="#000000" stroke="#000000" stroke-width="1" x1="713" x2="708" y1="174" y2="174"/>
<line fill="#000000" stroke="#000000" stroke-width="1" x1="703" x2="698" y1="174" y2="174"/>
<line fill="#000000" stroke="#000000" stroke-width="1" x1="693" x2="688" y1="174" y2="174"/>
<line fill="#000000" stroke="#000000" stroke-width="1" x1="683" x2="678" y1="174" y2="174"/>
<line fill="#000000" stroke="#000000" stroke-width="1" x1="673" x2="668" y1="174" y2="174"/>
<line fill="#000000" stroke="#000000" stroke-width="1" x1="663" x2="658" y1="174" y2="174"/>
<line fill="#000000" stroke="#000000" stroke-width="1" x1="653" x2="648" y1="174" y2="174"/>
<line fill="#000000" stroke="#000000" stroke-width="1" x1="643" x2="638" y1="174" y2="174"/>
<line fill="#000000" stroke="#000000" stroke-width="1" x1="633" x2="628" y1="174" y2="174"/>
<line fill="#000000" stroke="#000000" stroke-width="1" x1="623" x2="618" y1="174" y2="174"/>
<line fill="#000000" stroke="#000000" stroke-width="1" x1="613" x2="608" y1="174" y2="174"/>
<line fill="#000000" stroke="#000000" stroke-width="1" x1="603" x2="598" y1="174" y2="174"/>
<line fill="#000000" stroke="#000000" stroke-width="1" x1="593" x2="588" y1="174" y2="174"/>
<line fill="#000000" stroke="#000000" stroke-width="1" x1="583" x2="578" y1="174" y2="174"/>
<line fill="#000000" stroke="#000000" stroke-width="1" x1="573" x2="568" y1="174" y2="174"/>
<line fill="#000000" stroke="#000000" stroke-width="1" x1="563" x2="558" y1="174" y2="174"/>
<line fill="#000000" stroke="#000000" stroke-width="1" x1="553" x2="548" y1="174" y2="174"/>
<line fill="#000000" stroke="#000000" stroke-width="1" x1="543" x2="538" y1="174" y2="174"/>
<line fill="#000000" stroke="#000000" stroke-width="1" x1="533" x2="528" y1="174" y2="174"/>
<line fill="#000000" stroke="#000000" stroke-width="1" x1="523" x2="518" y1="174" y2="174"/>
<line fill="#000000" stroke="#000000" stroke-width="1" x1="513" x2="508" y1="174" y2="174"/>
<line fill="#000000" stroke="#000000" stroke-width="1" x1="503" x2="498" y1="174" y2="174"/>
<line fill="#000000" stroke="#000000" stroke-width="1" x1="493" x2="491" y1="174" y2="174"/>
<line fill="#000000" stroke="#000000" stroke-width="1" x1="503" x2="491" y1="167" y2="174"/>
<line fill="#000000" stroke="#000000" stroke-width="1" x1="503" x2="491" y1="181" y2="174"/>
<text font-family="Dialog" font-size="12" x="518" y="170">
списъкПодобниТикети()</text>
<line fill="#000000" stroke="#000000" stroke-width="1" x1="471" x2="466" y1="178" y2="178"/>
<line fill="#000000" stroke="#000000" stroke-width="1" x1="461" x2="456" y1="178" y2="178"/>
<line fill="#000000" stroke="#000000" stroke-width="1" x1="451" x2="446" y1="178" y2="178"/>
<line fill="#000000" stroke="#000000" stroke-width="1" x1="441" x2="436" y1="178" y2="178"/>
<line fill="#000000" stroke="#000000" stroke-width="1" x1="431" x2="426" y1="178" y2="178"/>
<line fill="#000000" stroke="#000000" stroke-width="1" x1="421" x2="416" y1="178" y2="178"/>
<line fill="#000000" stroke="#000000" stroke-width="1" x1="411" x2="406" y1="178" y2="178"/>
<line fill="#000000" stroke="#000000" stroke-width="1" x1="401" x2="396" y1="178" y2="178"/>
<line fill="#000000" stroke="#000000" stroke-width="1" x1="391" x2="386" y1="178" y2="178"/>
<line fill="#000000" stroke="#000000" stroke-width="1" x1="381" x2="376" y1="178" y2="178"/>
<line fill="#000000" stroke="#000000" stroke-width="1" x1="371" x2="366" y1="178" y2="178"/>
<line fill="#000000" stroke="#000000" stroke-width="1" x1="361" x2="356" y1="178" y2="178"/>
<line fill="#000000" stroke="#000000" stroke-width="1" x1="351" x2="346" y1="178" y2="178"/>
<line fill="#000000" stroke="#000000" stroke-width="1" x1="341" x2="336" y1="178" y2="178"/>
<line fill="#000000" stroke="#000000" stroke-width="1" x1="331" x2="326" y1="178" y2="178"/>
<line fill="#000000" stroke="#000000" stroke-width="1" x1="321" x2="316" y1="178" y2="178"/>
<line fill="#000000" stroke="#000000" stroke-width="1" x1="311" x2="306" y1="178" y2="178"/>
<line fill="#000000" stroke="#000000" stroke-width="1" x1="301" x2="296" y1="178" y2="178"/>
<line fill="#000000" stroke="#000000" stroke-width="1" x1="291" x2="286" y1="178" y2="178"/>
<line fill="#000000" stroke="#000000" stroke-width="1" x1="281" x2="276" y1="178" y2="178"/>
<line fill="#000000" stroke="#000000" stroke-width="1" x1="271" x2="266" y1="178" y2="178"/>
<line fill="#000000" stroke="#000000" stroke-width="1" x1="261" x2="256" y1="178" y2="178"/>
<line fill="#000000" stroke="#000000" stroke-width="1" x1="251" x2="246" y1="178" y2="178"/>
<line fill="#000000" stroke="#000000" stroke-width="1" x1="241" x2="236" y1="178" y2="178"/>
<line fill="#000000" stroke="#000000" stroke-width="1" x1="231" x2="226" y1="178" y2="178"/>
<line fill="#000000" stroke="#000000" stroke-width="1" x1="221" x2="216" y1="178" y2="178"/>
<line fill="#000000" stroke="#000000" stroke-width="1" x1="211" x2="206" y1="178" y2="178"/>
<line fill="#000000" stroke="#000000" stroke-width="1" x1="201" x2="196" y1="178" y2="178"/>
<line fill="#000000" stroke="#000000" stroke-width="1" x1="191" x2="186" y1="178" y2="178"/>
<line fill="#000000" stroke="#000000" stroke-width="1" x1="181" x2="176" y1="178" y2="178"/>
<line fill="#000000" stroke="#000000" stroke-width="1" x1="171" x2="166" y1="178" y2="178"/>
<line fill="#000000" stroke="#000000" stroke-width="1" x1="161" x2="156" y1="178" y2="178"/>
<line fill="#000000" stroke="#000000" stroke-width="1" x1="151" x2="146" y1="178" y2="178"/>
<line fill="#000000" stroke="#000000" stroke-width="1" x1="141" x2="136" y1="178" y2="178"/>
<line fill="#000000" stroke="#000000" stroke-width="1" x1="131" x2="126" y1="178" y2="178"/>
<line fill="#000000" stroke="#000000" stroke-width="1" x1="121" x2="116" y1="178" y2="178"/>
<line fill="#000000" stroke="#000000" stroke-width="1" x1="111" x2="106" y1="178" y2="178"/>
<line fill="#000000" stroke="#000000" stroke-width="1" x1="101" x2="100" y1="178" y2="178"/>
<line fill="#000000" stroke="#000000" stroke-width="1" x1="112" x2="100" y1="171" y2="178"/>
<line fill="#000000" stroke="#000000" stroke-width="1" x1="112" x2="100" y1="185" y2="178"/>
<text font-family="Dialog" font-size="12" x="242" y="173">
списъкПодобниТикети()</text>
</svg>
