<?xml version="1.0" encoding="utf-8" ?>
<!DOCTYPE svg PUBLIC "-//W3C//DTD SVG 1.1//EN" "http://www.w3.org/Graphics/SVG/1.1/DTD/svg11.dtd">
<svg height="472" version="1.1" width="887" xmlns="http://www.w3.org/2000/svg">
<line fill="#000000" stroke="#000000" stroke-width="1" x1="94" x2="94" y1="63" y2="68"/>
<line fill="#000000" stroke="#000000" stroke-width="1" x1="94" x2="94" y1="73" y2="78"/>
<line fill="#000000" stroke="#000000" stroke-width="1" x1="94" x2="94" y1="83" y2="88"/>
<line fill="#000000" stroke="#000000" stroke-width="1" x1="94" x2="94" y1="93" y2="98"/>
<line fill="#000000" stroke="#000000" stroke-width="1" x1="94" x2="94" y1="103" y2="108"/>
<line fill="#000000" stroke="#000000" stroke-width="1" x1="94" x2="94" y1="113" y2="118"/>
<line fill="#000000" stroke="#000000" stroke-width="1" x1="94" x2="94" y1="123" y2="128"/>
<line fill="#000000" stroke="#000000" stroke-width="1" x1="94" x2="94" y1="133" y2="138"/>
<line fill="#000000" stroke="#000000" stroke-width="1" x1="94" x2="94" y1="143" y2="148"/>
<line fill="#000000" stroke="#000000" stroke-width="1" x1="94" x2="94" y1="153" y2="158"/>
<line fill="#000000" stroke="#000000" stroke-width="1" x1="94" x2="94" y1="163" y2="168"/>
<line fill="#000000" stroke="#000000" stroke-width="1" x1="94" x2="94" y1="173" y2="178"/>
<line fill="#000000" stroke="#000000" stroke-width="1" x1="94" x2="94" y1="183" y2="188"/>
<line fill="#000000" stroke="#000000" stroke-width="1" x1="94" x2="94" y1="193" y2="198"/>
<line fill="#000000" stroke="#000000" stroke-width="1" x1="94" x2="94" y1="203" y2="208"/>
<line fill="#000000" stroke="#000000" stroke-width="1" x1="94" x2="94" y1="213" y2="218"/>
<line fill="#000000" stroke="#000000" stroke-width="1" x1="94" x2="94" y1="223" y2="228"/>
<line fill="#000000" stroke="#000000" stroke-width="1" x1="94" x2="94" y1="233" y2="238"/>
<line fill="#000000" stroke="#000000" stroke-width="1" x1="94" x2="94" y1="243" y2="248"/>
<line fill="#000000" stroke="#000000" stroke-width="1" x1="94" x2="94" y1="253" y2="258"/>
<line fill="#000000" stroke="#000000" stroke-width="1" x1="94" x2="94" y1="263" y2="268"/>
<line fill="#000000" stroke="#000000" stroke-width="1" x1="94" x2="94" y1="273" y2="278"/>
<line fill="#000000" stroke="#000000" stroke-width="1" x1="94" x2="94" y1="283" y2="288"/>
<line fill="#000000" stroke="#000000" stroke-width="1" x1="94" x2="94" y1="293" y2="298"/>
<line fill="#000000" stroke="#000000" stroke-width="1" x1="94" x2="94" y1="303" y2="308"/>
<line fill="#000000" stroke="#000000" stroke-width="1" x1="94" x2="94" y1="313" y2="318"/>
<line fill="#000000" stroke="#000000" stroke-width="1" x1="94" x2="94" y1="323" y2="328"/>
<line fill="#000000" stroke="#000000" stroke-width="1" x1="94" x2="94" y1="333" y2="338"/>
<line fill="#000000" stroke="#000000" stroke-width="1" x1="94" x2="94" y1="343" y2="348"/>
<line fill="#000000" stroke="#000000" stroke-width="1" x1="94" x2="94" y1="353" y2="358"/>
<line fill="#000000" stroke="#000000" stroke-width="1" x1="94" x2="94" y1="363" y2="368"/>
<line fill="#000000" stroke="#000000" stroke-width="1" x1="94" x2="94" y1="373" y2="378"/>
<line fill="#000000" stroke="#000000" stroke-width="1" x1="94" x2="94" y1="383" y2="388"/>
<line fill="#000000" stroke="#000000" stroke-width="1" x1="94" x2="94" y1="393" y2="398"/>
<line fill="#000000" stroke="#000000" stroke-width="1" x1="94" x2="94" y1="403" y2="408"/>
<line fill="#000000" stroke="#000000" stroke-width="1" x1="94" x2="94" y1="413" y2="418"/>
<line fill="#000000" stroke="#000000" stroke-width="1" x1="94" x2="94" y1="423" y2="428"/>
<line fill="#000000" stroke="#000000" stroke-width="1" x1="94" x2="94" y1="433" y2="438"/>
<line fill="#000000" stroke="#000000" stroke-width="1" x1="94" x2="94" y1="443" y2="448"/>
<line fill="#000000" stroke="#000000" stroke-width="1" x1="94" x2="94" y1="453" y2="457"/>
<rect fill="#ffffff" height="394" stroke="#ffffff" stroke-width="1" width="20" x="84" y="63"/>
<rect fill="none" height="394" stroke="#000000" stroke-width="1" width="20" x="84" y="63"/>
<rect fill="#ffffff" height="50" stroke="#ffffff" stroke-width="1" width="160" x="14" y="14"/>
<rect fill="none" height="50" stroke="#000000" stroke-width="1" width="160" x="14" y="14"/>
<text font-family="Dialog" font-size="12" x="51" y="27">
/Потребител</text>
<line fill="#000000" stroke="#000000" stroke-width="1" x1="458" x2="458" y1="63" y2="68"/>
<line fill="#000000" stroke="#000000" stroke-width="1" x1="458" x2="458" y1="73" y2="78"/>
<line fill="#000000" stroke="#000000" stroke-width="1" x1="458" x2="458" y1="83" y2="88"/>
<line fill="#000000" stroke="#000000" stroke-width="1" x1="458" x2="458" y1="93" y2="98"/>
<line fill="#000000" stroke="#000000" stroke-width="1" x1="458" x2="458" y1="103" y2="108"/>
<line fill="#000000" stroke="#000000" stroke-width="1" x1="458" x2="458" y1="113" y2="118"/>
<line fill="#000000" stroke="#000000" stroke-width="1" x1="458" x2="458" y1="123" y2="128"/>
<line fill="#000000" stroke="#000000" stroke-width="1" x1="458" x2="458" y1="133" y2="138"/>
<line fill="#000000" stroke="#000000" stroke-width="1" x1="458" x2="458" y1="143" y2="148"/>
<line fill="#000000" stroke="#000000" stroke-width="1" x1="458" x2="458" y1="153" y2="158"/>
<line fill="#000000" stroke="#000000" stroke-width="1" x1="458" x2="458" y1="163" y2="168"/>
<line fill="#000000" stroke="#000000" stroke-width="1" x1="458" x2="458" y1="173" y2="178"/>
<line fill="#000000" stroke="#000000" stroke-width="1" x1="458" x2="458" y1="183" y2="188"/>
<line fill="#000000" stroke="#000000" stroke-width="1" x1="458" x2="458" y1="193" y2="198"/>
<line fill="#000000" stroke="#000000" stroke-width="1" x1="458" x2="458" y1="203" y2="208"/>
<line fill="#000000" stroke="#000000" stroke-width="1" x1="458" x2="458" y1="213" y2="218"/>
<line fill="#000000" stroke="#000000" stroke-width="1" x1="458" x2="458" y1="223" y2="228"/>
<line fill="#000000" stroke="#000000" stroke-width="1" x1="458" x2="458" y1="233" y2="238"/>
<line fill="#000000" stroke="#000000" stroke-width="1" x1="458" x2="458" y1="243" y2="248"/>
<line fill="#000000" stroke="#000000" stroke-width="1" x1="458" x2="458" y1="253" y2="258"/>
<line fill="#000000" stroke="#000000" stroke-width="1" x1="458" x2="458" y1="263" y2="268"/>
<line fill="#000000" stroke="#000000" stroke-width="1" x1="458" x2="458" y1="273" y2="278"/>
<line fill="#000000" stroke="#000000" stroke-width="1" x1="458" x2="458" y1="283" y2="288"/>
<line fill="#000000" stroke="#000000" stroke-width="1" x1="458" x2="458" y1="293" y2="298"/>
<line fill="#000000" stroke="#000000" stroke-width="1" x1="458" x2="458" y1="303" y2="308"/>
<line fill="#000000" stroke="#000000" stroke-width="1" x1="458" x2="458" y1="313" y2="318"/>
<line fill="#000000" stroke="#000000" stroke-width="1" x1="458" x2="458" y1="323" y2="328"/>
<line fill="#000000" stroke="#000000" stroke-width="1" x1="458" x2="458" y1="333" y2="338"/>
<line fill="#000000" stroke="#000000" stroke-width="1" x1="458" x2="458" y1="343" y2="348"/>
<line fill="#000000" stroke="#000000" stroke-width="1" x1="458" x2="458" y1="353" y2="358"/>
<line fill="#000000" stroke="#000000" stroke-width="1" x1="458" x2="458" y1="363" y2="368"/>
<line fill="#000000" stroke="#000000" stroke-width="1" x1="458" x2="458" y1="373" y2="378"/>
<line fill="#000000" stroke="#000000" stroke-width="1" x1="458" x2="458" y1="383" y2="388"/>
<line fill="#000000" stroke="#000000" stroke-width="1" x1="458" x2="458" y1="393" y2="398"/>
<line fill="#000000" stroke="#000000" stroke-width="1" x1="458" x2="458" y1="403" y2="408"/>
<line fill="#000000" stroke="#000000" stroke-width="1" x1="458" x2="458" y1="413" y2="418"/>
<line fill="#000000" stroke="#000000" stroke-width="1" x1="458" x2="458" y1="423" y2="428"/>
<line fill="#000000" stroke="#000000" stroke-width="1" x1="458" x2="458" y1="433" y2="438"/>
<line fill="#000000" stroke="#000000" stroke-width="1" x1="458" x2="458" y1="443" y2="448"/>
<line fill="#000000" stroke="#000000" stroke-width="1" x1="458" x2="458" y1="453" y2="457"/>
<rect fill="#ffffff" height="394" stroke="#ffffff" stroke-width="1" width="20" x="448" y="63"/>
<rect fill="none" height="394" stroke="#000000" stroke-width="1" width="20" x="448" y="63"/>
<rect fill="#ffffff" height="50" stroke="#ffffff" stroke-width="1" width="152" x="382" y="14"/>
<rect fill="none" height="50" stroke="#000000" stroke-width="1" width="152" x="382" y="14"/>
<text font-family="Dialog" font-size="12" x="427" y="27">
/Система</text>
<polyline fill="none" points="104,102 448,102" stroke="#000000" stroke-width="1"/>
<line fill="#000000" stroke="#000000" stroke-width="1" x1="436" x2="448" y1="109" y2="102"/>
<line fill="#000000" stroke="#000000" stroke-width="1" x1="436" x2="448" y1="95" y2="102"/>
<text font-family="Dialog" font-size="12" x="190" y="98">
новоТърсене()</text>
<polyline fill="none" points="104,230 448,230" stroke="#000000" stroke-width="1"/>
<line fill="#000000" stroke="#000000" stroke-width="1" x1="436" x2="448" y1="237" y2="230"/>
<line fill="#000000" stroke="#000000" stroke-width="1" x1="436" x2="448" y1="223" y2="230"/>
<text font-family="Dialog" font-size="12" x="194" y="223">
изборНаФункция (функция)</text>
<line fill="#000000" stroke="#000000" stroke-width="1" x1="448" x2="443" y1="158" y2="158"/>
<line fill="#000000" stroke="#000000" stroke-width="1" x1="438" x2="433" y1="158" y2="158"/>
<line fill="#000000" stroke="#000000" stroke-width="1" x1="428" x2="423" y1="158" y2="158"/>
<line fill="#000000" stroke="#000000" stroke-width="1" x1="418" x2="413" y1="158" y2="158"/>
<line fill="#000000" stroke="#000000" stroke-width="1" x1="408" x2="403" y1="158" y2="158"/>
<line fill="#000000" stroke="#000000" stroke-width="1" x1="398" x2="393" y1="158" y2="158"/>
<line fill="#000000" stroke="#000000" stroke-width="1" x1="388" x2="383" y1="158" y2="158"/>
<line fill="#000000" stroke="#000000" stroke-width="1" x1="378" x2="373" y1="158" y2="158"/>
<line fill="#000000" stroke="#000000" stroke-width="1" x1="368" x2="363" y1="158" y2="158"/>
<line fill="#000000" stroke="#000000" stroke-width="1" x1="358" x2="353" y1="158" y2="158"/>
<line fill="#000000" stroke="#000000" stroke-width="1" x1="348" x2="343" y1="158" y2="158"/>
<line fill="#000000" stroke="#000000" stroke-width="1" x1="338" x2="333" y1="158" y2="158"/>
<line fill="#000000" stroke="#000000" stroke-width="1" x1="328" x2="323" y1="158" y2="158"/>
<line fill="#000000" stroke="#000000" stroke-width="1" x1="318" x2="313" y1="158" y2="158"/>
<line fill="#000000" stroke="#000000" stroke-width="1" x1="308" x2="303" y1="158" y2="158"/>
<line fill="#000000" stroke="#000000" stroke-width="1" x1="298" x2="293" y1="158" y2="158"/>
<line fill="#000000" stroke="#000000" stroke-width="1" x1="288" x2="283" y1="158" y2="158"/>
<line fill="#000000" stroke="#000000" stroke-width="1" x1="278" x2="273" y1="158" y2="158"/>
<line fill="#000000" stroke="#000000" stroke-width="1" x1="268" x2="263" y1="158" y2="158"/>
<line fill="#000000" stroke="#000000" stroke-width="1" x1="258" x2="253" y1="158" y2="158"/>
<line fill="#000000" stroke="#000000" stroke-width="1" x1="248" x2="243" y1="158" y2="158"/>
<line fill="#000000" stroke="#000000" stroke-width="1" x1="238" x2="233" y1="158" y2="158"/>
<line fill="#000000" stroke="#000000" stroke-width="1" x1="228" x2="223" y1="158" y2="158"/>
<line fill="#000000" stroke="#000000" stroke-width="1" x1="218" x2="213" y1="158" y2="158"/>
<line fill="#000000" stroke="#000000" stroke-width="1" x1="208" x2="203" y1="158" y2="158"/>
<line fill="#000000" stroke="#000000" stroke-width="1" x1="198" x2="193" y1="158" y2="158"/>
<line fill="#000000" stroke="#000000" stroke-width="1" x1="188" x2="183" y1="158" y2="158"/>
<line fill="#000000" stroke="#000000" stroke-width="1" x1="178" x2="173" y1="158" y2="158"/>
<line fill="#000000" stroke="#000000" stroke-width="1" x1="168" x2="163" y1="158" y2="158"/>
<line fill="#000000" stroke="#000000" stroke-width="1" x1="158" x2="153" y1="158" y2="158"/>
<line fill="#000000" stroke="#000000" stroke-width="1" x1="148" x2="143" y1="158" y2="158"/>
<line fill="#000000" stroke="#000000" stroke-width="1" x1="138" x2="133" y1="158" y2="158"/>
<line fill="#000000" stroke="#000000" stroke-width="1" x1="128" x2="123" y1="158" y2="158"/>
<line fill="#000000" stroke="#000000" stroke-width="1" x1="118" x2="113" y1="158" y2="158"/>
<line fill="#000000" stroke="#000000" stroke-width="1" x1="108" x2="104" y1="158" y2="158"/>
<line fill="#000000" stroke="#000000" stroke-width="1" x1="116" x2="104" y1="151" y2="158"/>
<line fill="#000000" stroke="#000000" stroke-width="1" x1="116" x2="104" y1="165" y2="158"/>
<text font-family="Dialog" font-size="12" x="190" y="152">
наличниФункции()</text>
<rect fill="none" height="200" stroke="#000000" stroke-width="1" width="752" x="62" y="198"/>
<line fill="#000000" stroke="#000000" stroke-width="1" x1="448" x2="443" y1="358" y2="358"/>
<line fill="#000000" stroke="#000000" stroke-width="1" x1="438" x2="433" y1="358" y2="358"/>
<line fill="#000000" stroke="#000000" stroke-width="1" x1="428" x2="423" y1="358" y2="358"/>
<line fill="#000000" stroke="#000000" stroke-width="1" x1="418" x2="413" y1="358" y2="358"/>
<line fill="#000000" stroke="#000000" stroke-width="1" x1="408" x2="403" y1="358" y2="358"/>
<line fill="#000000" stroke="#000000" stroke-width="1" x1="398" x2="393" y1="358" y2="358"/>
<line fill="#000000" stroke="#000000" stroke-width="1" x1="388" x2="383" y1="358" y2="358"/>
<line fill="#000000" stroke="#000000" stroke-width="1" x1="378" x2="373" y1="358" y2="358"/>
<line fill="#000000" stroke="#000000" stroke-width="1" x1="368" x2="363" y1="358" y2="358"/>
<line fill="#000000" stroke="#000000" stroke-width="1" x1="358" x2="353" y1="358" y2="358"/>
<line fill="#000000" stroke="#000000" stroke-width="1" x1="348" x2="343" y1="358" y2="358"/>
<line fill="#000000" stroke="#000000" stroke-width="1" x1="338" x2="333" y1="358" y2="358"/>
<line fill="#000000" stroke="#000000" stroke-width="1" x1="328" x2="323" y1="358" y2="358"/>
<line fill="#000000" stroke="#000000" stroke-width="1" x1="318" x2="313" y1="358" y2="358"/>
<line fill="#000000" stroke="#000000" stroke-width="1" x1="308" x2="303" y1="358" y2="358"/>
<line fill="#000000" stroke="#000000" stroke-width="1" x1="298" x2="293" y1="358" y2="358"/>
<line fill="#000000" stroke="#000000" stroke-width="1" x1="288" x2="283" y1="358" y2="358"/>
<line fill="#000000" stroke="#000000" stroke-width="1" x1="278" x2="273" y1="358" y2="358"/>
<line fill="#000000" stroke="#000000" stroke-width="1" x1="268" x2="263" y1="358" y2="358"/>
<line fill="#000000" stroke="#000000" stroke-width="1" x1="258" x2="253" y1="358" y2="358"/>
<line fill="#000000" stroke="#000000" stroke-width="1" x1="248" x2="243" y1="358" y2="358"/>
<line fill="#000000" stroke="#000000" stroke-width="1" x1="238" x2="233" y1="358" y2="358"/>
<line fill="#000000" stroke="#000000" stroke-width="1" x1="228" x2="223" y1="358" y2="358"/>
<line fill="#000000" stroke="#000000" stroke-width="1" x1="218" x2="213" y1="358" y2="358"/>
<line fill="#000000" stroke="#000000" stroke-width="1" x1="208" x2="203" y1="358" y2="358"/>
<line fill="#000000" stroke="#000000" stroke-width="1" x1="198" x2="193" y1="358" y2="358"/>
<line fill="#000000" stroke="#000000" stroke-width="1" x1="188" x2="183" y1="358" y2="358"/>
<line fill="#000000" stroke="#000000" stroke-width="1" x1="178" x2="173" y1="358" y2="358"/>
<line fill="#000000" stroke="#000000" stroke-width="1" x1="168" x2="163" y1="358" y2="358"/>
<line fill="#000000" stroke="#000000" stroke-width="1" x1="158" x2="153" y1="358" y2="358"/>
<line fill="#000000" stroke="#000000" stroke-width="1" x1="148" x2="143" y1="358" y2="358"/>
<line fill="#000000" stroke="#000000" stroke-width="1" x1="138" x2="133" y1="358" y2="358"/>
<line fill="#000000" stroke="#000000" stroke-width="1" x1="128" x2="123" y1="358" y2="358"/>
<line fill="#000000" stroke="#000000" stroke-width="1" x1="118" x2="113" y1="358" y2="358"/>
<line fill="#000000" stroke="#000000" stroke-width="1" x1="108" x2="104" y1="358" y2="358"/>
<line fill="#000000" stroke="#000000" stroke-width="1" x1="116" x2="104" y1="351" y2="358"/>
<line fill="#000000" stroke="#000000" stroke-width="1" x1="116" x2="104" y1="365" y2="358"/>
<text font-family="Dialog" font-size="12" x="182" y="354">
съвместимиУстройства()</text>
<polyline fill="none" points="104,270 448,270" stroke="#000000" stroke-width="1"/>
<line fill="#000000" stroke="#000000" stroke-width="1" x1="436" x2="448" y1="277" y2="270"/>
<line fill="#000000" stroke="#000000" stroke-width="1" x1="436" x2="448" y1="263" y2="270"/>
<text font-family="Dialog" font-size="12" x="192" y="266">
описание (текст)</text>
<polyline fill="none" points="104,302 448,302" stroke="#000000" stroke-width="1"/>
<line fill="#000000" stroke="#000000" stroke-width="1" x1="436" x2="448" y1="309" y2="302"/>
<line fill="#000000" stroke="#000000" stroke-width="1" x1="436" x2="448" y1="295" y2="302"/>
<text font-family="Dialog" font-size="12" x="193" y="298">
поискванеНаРезултат()</text>
<text font-family="Dialog" font-size="12" x="110" y="386">
* докато потребителят не приключи търсенето</text>
<line fill="#000000" stroke="#000000" stroke-width="1" x1="735" x2="735" y1="63" y2="68"/>
<line fill="#000000" stroke="#000000" stroke-width="1" x1="735" x2="735" y1="73" y2="78"/>
<line fill="#000000" stroke="#000000" stroke-width="1" x1="735" x2="735" y1="83" y2="88"/>
<line fill="#000000" stroke="#000000" stroke-width="1" x1="735" x2="735" y1="93" y2="98"/>
<line fill="#000000" stroke="#000000" stroke-width="1" x1="735" x2="735" y1="103" y2="108"/>
<line fill="#000000" stroke="#000000" stroke-width="1" x1="735" x2="735" y1="113" y2="118"/>
<line fill="#000000" stroke="#000000" stroke-width="1" x1="735" x2="735" y1="123" y2="128"/>
<line fill="#000000" stroke="#000000" stroke-width="1" x1="735" x2="735" y1="133" y2="138"/>
<line fill="#000000" stroke="#000000" stroke-width="1" x1="735" x2="735" y1="143" y2="148"/>
<line fill="#000000" stroke="#000000" stroke-width="1" x1="735" x2="735" y1="153" y2="158"/>
<line fill="#000000" stroke="#000000" stroke-width="1" x1="735" x2="735" y1="163" y2="168"/>
<line fill="#000000" stroke="#000000" stroke-width="1" x1="735" x2="735" y1="173" y2="178"/>
<line fill="#000000" stroke="#000000" stroke-width="1" x1="735" x2="735" y1="183" y2="188"/>
<line fill="#000000" stroke="#000000" stroke-width="1" x1="735" x2="735" y1="193" y2="198"/>
<line fill="#000000" stroke="#000000" stroke-width="1" x1="735" x2="735" y1="203" y2="208"/>
<line fill="#000000" stroke="#000000" stroke-width="1" x1="735" x2="735" y1="213" y2="218"/>
<line fill="#000000" stroke="#000000" stroke-width="1" x1="735" x2="735" y1="223" y2="228"/>
<line fill="#000000" stroke="#000000" stroke-width="1" x1="735" x2="735" y1="233" y2="238"/>
<line fill="#000000" stroke="#000000" stroke-width="1" x1="735" x2="735" y1="243" y2="248"/>
<line fill="#000000" stroke="#000000" stroke-width="1" x1="735" x2="735" y1="253" y2="258"/>
<line fill="#000000" stroke="#000000" stroke-width="1" x1="735" x2="735" y1="263" y2="268"/>
<line fill="#000000" stroke="#000000" stroke-width="1" x1="735" x2="735" y1="273" y2="278"/>
<line fill="#000000" stroke="#000000" stroke-width="1" x1="735" x2="735" y1="283" y2="288"/>
<line fill="#000000" stroke="#000000" stroke-width="1" x1="735" x2="735" y1="293" y2="298"/>
<line fill="#000000" stroke="#000000" stroke-width="1" x1="735" x2="735" y1="303" y2="308"/>
<line fill="#000000" stroke="#000000" stroke-width="1" x1="735" x2="735" y1="313" y2="318"/>
<line fill="#000000" stroke="#000000" stroke-width="1" x1="735" x2="735" y1="323" y2="328"/>
<line fill="#000000" stroke="#000000" stroke-width="1" x1="735" x2="735" y1="333" y2="338"/>
<line fill="#000000" stroke="#000000" stroke-width="1" x1="735" x2="735" y1="343" y2="348"/>
<line fill="#000000" stroke="#000000" stroke-width="1" x1="735" x2="735" y1="353" y2="358"/>
<line fill="#000000" stroke="#000000" stroke-width="1" x1="735" x2="735" y1="363" y2="368"/>
<line fill="#000000" stroke="#000000" stroke-width="1" x1="735" x2="735" y1="373" y2="378"/>
<line fill="#000000" stroke="#000000" stroke-width="1" x1="735" x2="735" y1="383" y2="388"/>
<line fill="#000000" stroke="#000000" stroke-width="1" x1="735" x2="735" y1="393" y2="398"/>
<line fill="#000000" stroke="#000000" stroke-width="1" x1="735" x2="735" y1="403" y2="408"/>
<line fill="#000000" stroke="#000000" stroke-width="1" x1="735" x2="735" y1="413" y2="418"/>
<line fill="#000000" stroke="#000000" stroke-width="1" x1="735" x2="735" y1="423" y2="428"/>
<line fill="#000000" stroke="#000000" stroke-width="1" x1="735" x2="735" y1="433" y2="438"/>
<line fill="#000000" stroke="#000000" stroke-width="1" x1="735" x2="735" y1="443" y2="448"/>
<line fill="#000000" stroke="#000000" stroke-width="1" x1="735" x2="735" y1="453" y2="457"/>
<rect fill="#ffffff" height="394" stroke="#ffffff" stroke-width="1" width="20" x="725" y="63"/>
<rect fill="none" height="394" stroke="#000000" stroke-width="1" width="20" x="725" y="63"/>
<rect fill="#ffffff" height="50" stroke="#ffffff" stroke-width="1" width="275" x="598" y="14"/>
<rect fill="none" height="50" stroke="#000000" stroke-width="1" width="275" x="598" y="14"/>
<text font-family="Dialog" font-size="12" x="610" y="27">
/Подсистема за управление на данни</text>
<polyline fill="none" points="468,286 725,286" stroke="#000000" stroke-width="1"/>
<line fill="#000000" stroke="#000000" stroke-width="1" x1="713" x2="725" y1="293" y2="286"/>
<line fill="#000000" stroke="#000000" stroke-width="1" x1="713" x2="725" y1="279" y2="286"/>
<text font-family="Dialog" font-size="12" x="489" y="277">
съвместимиУстройства (функции)</text>
<line fill="#000000" stroke="#000000" stroke-width="1" x1="725" x2="720" y1="342" y2="342"/>
<line fill="#000000" stroke="#000000" stroke-width="1" x1="715" x2="710" y1="342" y2="342"/>
<line fill="#000000" stroke="#000000" stroke-width="1" x1="705" x2="700" y1="342" y2="342"/>
<line fill="#000000" stroke="#000000" stroke-width="1" x1="695" x2="690" y1="342" y2="342"/>
<line fill="#000000" stroke="#000000" stroke-width="1" x1="685" x2="680" y1="342" y2="342"/>
<line fill="#000000" stroke="#000000" stroke-width="1" x1="675" x2="670" y1="342" y2="342"/>
<line fill="#000000" stroke="#000000" stroke-width="1" x1="665" x2="660" y1="342" y2="342"/>
<line fill="#000000" stroke="#000000" stroke-width="1" x1="655" x2="650" y1="342" y2="342"/>
<line fill="#000000" stroke="#000000" stroke-width="1" x1="645" x2="640" y1="342" y2="342"/>
<line fill="#000000" stroke="#000000" stroke-width="1" x1="635" x2="630" y1="342" y2="342"/>
<line fill="#000000" stroke="#000000" stroke-width="1" x1="625" x2="620" y1="342" y2="342"/>
<line fill="#000000" stroke="#000000" stroke-width="1" x1="615" x2="610" y1="342" y2="342"/>
<line fill="#000000" stroke="#000000" stroke-width="1" x1="605" x2="600" y1="342" y2="342"/>
<line fill="#000000" stroke="#000000" stroke-width="1" x1="595" x2="590" y1="342" y2="342"/>
<line fill="#000000" stroke="#000000" stroke-width="1" x1="585" x2="580" y1="342" y2="342"/>
<line fill="#000000" stroke="#000000" stroke-width="1" x1="575" x2="570" y1="342" y2="342"/>
<line fill="#000000" stroke="#000000" stroke-width="1" x1="565" x2="560" y1="342" y2="342"/>
<line fill="#000000" stroke="#000000" stroke-width="1" x1="555" x2="550" y1="342" y2="342"/>
<line fill="#000000" stroke="#000000" stroke-width="1" x1="545" x2="540" y1="342" y2="342"/>
<line fill="#000000" stroke="#000000" stroke-width="1" x1="535" x2="530" y1="342" y2="342"/>
<line fill="#000000" stroke="#000000" stroke-width="1" x1="525" x2="520" y1="342" y2="342"/>
<line fill="#000000" stroke="#000000" stroke-width="1" x1="515" x2="510" y1="342" y2="342"/>
<line fill="#000000" stroke="#000000" stroke-width="1" x1="505" x2="500" y1="342" y2="342"/>
<line fill="#000000" stroke="#000000" stroke-width="1" x1="495" x2="490" y1="342" y2="342"/>
<line fill="#000000" stroke="#000000" stroke-width="1" x1="485" x2="480" y1="342" y2="342"/>
<line fill="#000000" stroke="#000000" stroke-width="1" x1="475" x2="470" y1="342" y2="342"/>
<line fill="#000000" stroke="#000000" stroke-width="1" x1="480" x2="468" y1="335" y2="342"/>
<line fill="#000000" stroke="#000000" stroke-width="1" x1="480" x2="468" y1="349" y2="342"/>
<text font-family="Dialog" font-size="12" x="494" y="334">
съвместимиУстройства()</text>
</svg>
