<?xml version="1.0" encoding="utf-8" ?>
<!DOCTYPE svg PUBLIC "-//W3C//DTD SVG 1.1//EN" "http://www.w3.org/Graphics/SVG/1.1/DTD/svg11.dtd">
<svg height="348" version="1.1" width="1140" xmlns="http://www.w3.org/2000/svg">
<line fill="#000000" stroke="#000000" stroke-width="1" x1="89" x2="89" y1="63" y2="68"/>
<line fill="#000000" stroke="#000000" stroke-width="1" x1="89" x2="89" y1="73" y2="78"/>
<line fill="#000000" stroke="#000000" stroke-width="1" x1="89" x2="89" y1="83" y2="88"/>
<line fill="#000000" stroke="#000000" stroke-width="1" x1="89" x2="89" y1="93" y2="98"/>
<line fill="#000000" stroke="#000000" stroke-width="1" x1="89" x2="89" y1="103" y2="108"/>
<line fill="#000000" stroke="#000000" stroke-width="1" x1="89" x2="89" y1="113" y2="118"/>
<line fill="#000000" stroke="#000000" stroke-width="1" x1="89" x2="89" y1="123" y2="128"/>
<line fill="#000000" stroke="#000000" stroke-width="1" x1="89" x2="89" y1="133" y2="138"/>
<line fill="#000000" stroke="#000000" stroke-width="1" x1="89" x2="89" y1="143" y2="148"/>
<line fill="#000000" stroke="#000000" stroke-width="1" x1="89" x2="89" y1="153" y2="158"/>
<line fill="#000000" stroke="#000000" stroke-width="1" x1="89" x2="89" y1="163" y2="168"/>
<line fill="#000000" stroke="#000000" stroke-width="1" x1="89" x2="89" y1="173" y2="178"/>
<line fill="#000000" stroke="#000000" stroke-width="1" x1="89" x2="89" y1="183" y2="188"/>
<line fill="#000000" stroke="#000000" stroke-width="1" x1="89" x2="89" y1="193" y2="198"/>
<line fill="#000000" stroke="#000000" stroke-width="1" x1="89" x2="89" y1="203" y2="208"/>
<line fill="#000000" stroke="#000000" stroke-width="1" x1="89" x2="89" y1="213" y2="218"/>
<line fill="#000000" stroke="#000000" stroke-width="1" x1="89" x2="89" y1="223" y2="228"/>
<line fill="#000000" stroke="#000000" stroke-width="1" x1="89" x2="89" y1="233" y2="238"/>
<line fill="#000000" stroke="#000000" stroke-width="1" x1="89" x2="89" y1="243" y2="248"/>
<line fill="#000000" stroke="#000000" stroke-width="1" x1="89" x2="89" y1="253" y2="258"/>
<line fill="#000000" stroke="#000000" stroke-width="1" x1="89" x2="89" y1="263" y2="268"/>
<line fill="#000000" stroke="#000000" stroke-width="1" x1="89" x2="89" y1="273" y2="278"/>
<line fill="#000000" stroke="#000000" stroke-width="1" x1="89" x2="89" y1="283" y2="288"/>
<line fill="#000000" stroke="#000000" stroke-width="1" x1="89" x2="89" y1="293" y2="298"/>
<line fill="#000000" stroke="#000000" stroke-width="1" x1="89" x2="89" y1="303" y2="308"/>
<line fill="#000000" stroke="#000000" stroke-width="1" x1="89" x2="89" y1="313" y2="318"/>
<line fill="#000000" stroke="#000000" stroke-width="1" x1="89" x2="89" y1="323" y2="328"/>
<rect fill="#ffffff" height="270" stroke="#ffffff" stroke-width="1" width="20" x="79" y="63"/>
<rect fill="none" height="270" stroke="#000000" stroke-width="1" width="20" x="79" y="63"/>
<rect fill="#ffffff" height="50" stroke="#ffffff" stroke-width="1" width="150" x="14" y="14"/>
<rect fill="none" height="50" stroke="#000000" stroke-width="1" width="150" x="14" y="14"/>
<text font-family="Dialog" font-size="12" x="46" y="27">
/Потребител</text>
<line fill="#000000" stroke="#000000" stroke-width="1" x1="489" x2="489" y1="63" y2="68"/>
<line fill="#000000" stroke="#000000" stroke-width="1" x1="489" x2="489" y1="73" y2="78"/>
<line fill="#000000" stroke="#000000" stroke-width="1" x1="489" x2="489" y1="83" y2="88"/>
<line fill="#000000" stroke="#000000" stroke-width="1" x1="489" x2="489" y1="93" y2="98"/>
<line fill="#000000" stroke="#000000" stroke-width="1" x1="489" x2="489" y1="103" y2="108"/>
<line fill="#000000" stroke="#000000" stroke-width="1" x1="489" x2="489" y1="113" y2="118"/>
<line fill="#000000" stroke="#000000" stroke-width="1" x1="489" x2="489" y1="123" y2="128"/>
<line fill="#000000" stroke="#000000" stroke-width="1" x1="489" x2="489" y1="133" y2="138"/>
<line fill="#000000" stroke="#000000" stroke-width="1" x1="489" x2="489" y1="143" y2="148"/>
<line fill="#000000" stroke="#000000" stroke-width="1" x1="489" x2="489" y1="153" y2="158"/>
<line fill="#000000" stroke="#000000" stroke-width="1" x1="489" x2="489" y1="163" y2="168"/>
<line fill="#000000" stroke="#000000" stroke-width="1" x1="489" x2="489" y1="173" y2="178"/>
<line fill="#000000" stroke="#000000" stroke-width="1" x1="489" x2="489" y1="183" y2="188"/>
<line fill="#000000" stroke="#000000" stroke-width="1" x1="489" x2="489" y1="193" y2="198"/>
<line fill="#000000" stroke="#000000" stroke-width="1" x1="489" x2="489" y1="203" y2="208"/>
<line fill="#000000" stroke="#000000" stroke-width="1" x1="489" x2="489" y1="213" y2="218"/>
<line fill="#000000" stroke="#000000" stroke-width="1" x1="489" x2="489" y1="223" y2="228"/>
<line fill="#000000" stroke="#000000" stroke-width="1" x1="489" x2="489" y1="233" y2="238"/>
<line fill="#000000" stroke="#000000" stroke-width="1" x1="489" x2="489" y1="243" y2="248"/>
<line fill="#000000" stroke="#000000" stroke-width="1" x1="489" x2="489" y1="253" y2="258"/>
<line fill="#000000" stroke="#000000" stroke-width="1" x1="489" x2="489" y1="263" y2="268"/>
<line fill="#000000" stroke="#000000" stroke-width="1" x1="489" x2="489" y1="273" y2="278"/>
<line fill="#000000" stroke="#000000" stroke-width="1" x1="489" x2="489" y1="283" y2="288"/>
<line fill="#000000" stroke="#000000" stroke-width="1" x1="489" x2="489" y1="293" y2="298"/>
<line fill="#000000" stroke="#000000" stroke-width="1" x1="489" x2="489" y1="303" y2="308"/>
<line fill="#000000" stroke="#000000" stroke-width="1" x1="489" x2="489" y1="313" y2="318"/>
<line fill="#000000" stroke="#000000" stroke-width="1" x1="489" x2="489" y1="323" y2="328"/>
<rect fill="#ffffff" height="270" stroke="#ffffff" stroke-width="1" width="20" x="479" y="63"/>
<rect fill="none" height="270" stroke="#000000" stroke-width="1" width="20" x="479" y="63"/>
<rect fill="#ffffff" height="50" stroke="#ffffff" stroke-width="1" width="166" x="406" y="14"/>
<rect fill="none" height="50" stroke="#000000" stroke-width="1" width="166" x="406" y="14"/>
<text font-family="Dialog" font-size="12" x="410" y="27">
/Подсистема за тикети</text>
<polyline fill="none" points="99,126 479,126" stroke="#000000" stroke-width="1"/>
<line fill="#000000" stroke="#000000" stroke-width="1" x1="467" x2="479" y1="133" y2="126"/>
<line fill="#000000" stroke="#000000" stroke-width="1" x1="467" x2="479" y1="119" y2="126"/>
<text font-family="Dialog" font-size="12" x="215" y="122">
заглавиеТикет (заглавие)</text>
<polyline fill="none" points="99,150 479,150" stroke="#000000" stroke-width="1"/>
<line fill="#000000" stroke="#000000" stroke-width="1" x1="467" x2="479" y1="157" y2="150"/>
<line fill="#000000" stroke="#000000" stroke-width="1" x1="467" x2="479" y1="143" y2="150"/>
<text font-family="Dialog" font-size="12" x="216" y="146">
описаниеТикет (описание)</text>
<polyline fill="none" points="99,190 479,190" stroke="#000000" stroke-width="1"/>
<line fill="#000000" stroke="#000000" stroke-width="1" x1="467" x2="479" y1="197" y2="190"/>
<line fill="#000000" stroke="#000000" stroke-width="1" x1="467" x2="479" y1="183" y2="190"/>
<text font-family="Dialog" font-size="12" x="216" y="186">
прикачванеКъмТикет (файл)</text>
<polyline fill="none" points="99,238 479,238" stroke="#000000" stroke-width="1"/>
<line fill="#000000" stroke="#000000" stroke-width="1" x1="467" x2="479" y1="245" y2="238"/>
<line fill="#000000" stroke="#000000" stroke-width="1" x1="467" x2="479" y1="231" y2="238"/>
<text font-family="Dialog" font-size="12" x="202" y="234">
приоритетТикет (приоритет)</text>
<polyline fill="none" points="99,262 479,262" stroke="#000000" stroke-width="1"/>
<line fill="#000000" stroke="#000000" stroke-width="1" x1="467" x2="479" y1="269" y2="262"/>
<line fill="#000000" stroke="#000000" stroke-width="1" x1="467" x2="479" y1="255" y2="262"/>
<text font-family="Dialog" font-size="12" x="217" y="258">
потвърждениеТикет()</text>
<polyline fill="none" points="99,102 479,102" stroke="#000000" stroke-width="1"/>
<line fill="#000000" stroke="#000000" stroke-width="1" x1="467" x2="479" y1="109" y2="102"/>
<line fill="#000000" stroke="#000000" stroke-width="1" x1="467" x2="479" y1="95" y2="102"/>
<text font-family="Dialog" font-size="12" x="215" y="98">
тикетЗа (отдел)</text>
<line fill="#000000" stroke="#000000" stroke-width="1" x1="1049" x2="1049" y1="63" y2="68"/>
<line fill="#000000" stroke="#000000" stroke-width="1" x1="1049" x2="1049" y1="73" y2="78"/>
<line fill="#000000" stroke="#000000" stroke-width="1" x1="1049" x2="1049" y1="83" y2="88"/>
<line fill="#000000" stroke="#000000" stroke-width="1" x1="1049" x2="1049" y1="93" y2="98"/>
<line fill="#000000" stroke="#000000" stroke-width="1" x1="1049" x2="1049" y1="103" y2="108"/>
<line fill="#000000" stroke="#000000" stroke-width="1" x1="1049" x2="1049" y1="113" y2="118"/>
<line fill="#000000" stroke="#000000" stroke-width="1" x1="1049" x2="1049" y1="123" y2="128"/>
<line fill="#000000" stroke="#000000" stroke-width="1" x1="1049" x2="1049" y1="133" y2="138"/>
<line fill="#000000" stroke="#000000" stroke-width="1" x1="1049" x2="1049" y1="143" y2="148"/>
<line fill="#000000" stroke="#000000" stroke-width="1" x1="1049" x2="1049" y1="153" y2="158"/>
<line fill="#000000" stroke="#000000" stroke-width="1" x1="1049" x2="1049" y1="163" y2="168"/>
<line fill="#000000" stroke="#000000" stroke-width="1" x1="1049" x2="1049" y1="173" y2="178"/>
<line fill="#000000" stroke="#000000" stroke-width="1" x1="1049" x2="1049" y1="183" y2="188"/>
<line fill="#000000" stroke="#000000" stroke-width="1" x1="1049" x2="1049" y1="193" y2="198"/>
<line fill="#000000" stroke="#000000" stroke-width="1" x1="1049" x2="1049" y1="203" y2="208"/>
<line fill="#000000" stroke="#000000" stroke-width="1" x1="1049" x2="1049" y1="213" y2="218"/>
<line fill="#000000" stroke="#000000" stroke-width="1" x1="1049" x2="1049" y1="223" y2="228"/>
<line fill="#000000" stroke="#000000" stroke-width="1" x1="1049" x2="1049" y1="233" y2="238"/>
<line fill="#000000" stroke="#000000" stroke-width="1" x1="1049" x2="1049" y1="243" y2="248"/>
<line fill="#000000" stroke="#000000" stroke-width="1" x1="1049" x2="1049" y1="253" y2="258"/>
<line fill="#000000" stroke="#000000" stroke-width="1" x1="1049" x2="1049" y1="263" y2="268"/>
<line fill="#000000" stroke="#000000" stroke-width="1" x1="1049" x2="1049" y1="273" y2="278"/>
<line fill="#000000" stroke="#000000" stroke-width="1" x1="1049" x2="1049" y1="283" y2="288"/>
<line fill="#000000" stroke="#000000" stroke-width="1" x1="1049" x2="1049" y1="293" y2="298"/>
<line fill="#000000" stroke="#000000" stroke-width="1" x1="1049" x2="1049" y1="303" y2="308"/>
<line fill="#000000" stroke="#000000" stroke-width="1" x1="1049" x2="1049" y1="313" y2="318"/>
<line fill="#000000" stroke="#000000" stroke-width="1" x1="1049" x2="1049" y1="323" y2="328"/>
<rect fill="#ffffff" height="270" stroke="#ffffff" stroke-width="1" width="20" x="1039" y="63"/>
<rect fill="none" height="270" stroke="#000000" stroke-width="1" width="20" x="1039" y="63"/>
<rect fill="#ffffff" height="50" stroke="#ffffff" stroke-width="1" width="150" x="974" y="14"/>
<rect fill="none" height="50" stroke="#000000" stroke-width="1" width="150" x="974" y="14"/>
<text font-family="Dialog" font-size="12" x="1009" y="27">
/mail сървър</text>
<line fill="#000000" stroke="#000000" stroke-width="1" x1="813" x2="813" y1="63" y2="68"/>
<line fill="#000000" stroke="#000000" stroke-width="1" x1="813" x2="813" y1="73" y2="78"/>
<line fill="#000000" stroke="#000000" stroke-width="1" x1="813" x2="813" y1="83" y2="88"/>
<line fill="#000000" stroke="#000000" stroke-width="1" x1="813" x2="813" y1="93" y2="98"/>
<line fill="#000000" stroke="#000000" stroke-width="1" x1="813" x2="813" y1="103" y2="108"/>
<line fill="#000000" stroke="#000000" stroke-width="1" x1="813" x2="813" y1="113" y2="118"/>
<line fill="#000000" stroke="#000000" stroke-width="1" x1="813" x2="813" y1="123" y2="128"/>
<line fill="#000000" stroke="#000000" stroke-width="1" x1="813" x2="813" y1="133" y2="138"/>
<line fill="#000000" stroke="#000000" stroke-width="1" x1="813" x2="813" y1="143" y2="148"/>
<line fill="#000000" stroke="#000000" stroke-width="1" x1="813" x2="813" y1="153" y2="158"/>
<line fill="#000000" stroke="#000000" stroke-width="1" x1="813" x2="813" y1="163" y2="168"/>
<line fill="#000000" stroke="#000000" stroke-width="1" x1="813" x2="813" y1="173" y2="178"/>
<line fill="#000000" stroke="#000000" stroke-width="1" x1="813" x2="813" y1="183" y2="188"/>
<line fill="#000000" stroke="#000000" stroke-width="1" x1="813" x2="813" y1="193" y2="198"/>
<line fill="#000000" stroke="#000000" stroke-width="1" x1="813" x2="813" y1="203" y2="208"/>
<line fill="#000000" stroke="#000000" stroke-width="1" x1="813" x2="813" y1="213" y2="218"/>
<line fill="#000000" stroke="#000000" stroke-width="1" x1="813" x2="813" y1="223" y2="228"/>
<line fill="#000000" stroke="#000000" stroke-width="1" x1="813" x2="813" y1="233" y2="238"/>
<line fill="#000000" stroke="#000000" stroke-width="1" x1="813" x2="813" y1="243" y2="248"/>
<line fill="#000000" stroke="#000000" stroke-width="1" x1="813" x2="813" y1="253" y2="258"/>
<line fill="#000000" stroke="#000000" stroke-width="1" x1="813" x2="813" y1="263" y2="268"/>
<line fill="#000000" stroke="#000000" stroke-width="1" x1="813" x2="813" y1="273" y2="278"/>
<line fill="#000000" stroke="#000000" stroke-width="1" x1="813" x2="813" y1="283" y2="288"/>
<line fill="#000000" stroke="#000000" stroke-width="1" x1="813" x2="813" y1="293" y2="298"/>
<line fill="#000000" stroke="#000000" stroke-width="1" x1="813" x2="813" y1="303" y2="308"/>
<line fill="#000000" stroke="#000000" stroke-width="1" x1="813" x2="813" y1="313" y2="318"/>
<line fill="#000000" stroke="#000000" stroke-width="1" x1="813" x2="813" y1="323" y2="328"/>
<rect fill="#ffffff" height="270" stroke="#ffffff" stroke-width="1" width="20" x="803" y="63"/>
<rect fill="none" height="270" stroke="#000000" stroke-width="1" width="20" x="803" y="63"/>
<rect fill="#ffffff" height="50" stroke="#ffffff" stroke-width="1" width="287" x="670" y="14"/>
<rect fill="none" height="50" stroke="#000000" stroke-width="1" width="287" x="670" y="14"/>
<text font-family="Dialog" font-size="12" x="680" y="27">
/Подсистема за управление на данните</text>
<polyline fill="none" points="499,294 1039,294" stroke="#000000" stroke-width="1"/>
<line fill="#000000" stroke="#000000" stroke-width="1" x1="1027" x2="1039" y1="301" y2="294"/>
<line fill="#000000" stroke="#000000" stroke-width="1" x1="1027" x2="1039" y1="287" y2="294"/>
<text font-family="Dialog" font-size="12" x="690" y="289">
колективноПисмо (получатели, тяло)</text>
<polyline fill="none" points="499,262 803,262" stroke="#000000" stroke-width="1"/>
<line fill="#000000" stroke="#000000" stroke-width="1" x1="791" x2="803" y1="269" y2="262"/>
<line fill="#000000" stroke="#000000" stroke-width="1" x1="791" x2="803" y1="255" y2="262"/>
<text font-family="Dialog" font-size="12" x="534" y="256">
създайТикет (статус=Свободен, заглавие, описание, файлове, приоритет)</text>
<rect fill="none" height="48" stroke="#000000" stroke-width="1" width="1064" x="62" y="166"/>
<text font-family="Dialog" font-size="12" x="71" y="211">
докато потребителят иска да прикачва *</text>
<polyline fill="none" points="499,190 803,190" stroke="#000000" stroke-width="1"/>
<line fill="#000000" stroke="#000000" stroke-width="1" x1="791" x2="803" y1="197" y2="190"/>
<line fill="#000000" stroke="#000000" stroke-width="1" x1="791" x2="803" y1="183" y2="190"/>
<text font-family="Dialog" font-size="12" x="603" y="185">
новФайлКъмТикет (път, тикет)</text>
</svg>
